<svg width="138" height="138" viewBox="0 0 138 138" fill="none" xmlns="http://www.w3.org/2000/svg">
<g filter="url(#filter0_d_1_2770)">
<circle cx="69" cy="61" r="45" fill="white"/>
</g>
<path d="M70.7142 34H68.2856V35.1171H70.7142V34Z" fill="#34495E"/>
<path d="M45.1171 58.2857H44V60.7143H45.1171V58.2857Z" fill="#34495E"/>
<path d="M70.7142 83.8829H68.2856V85.0001H70.7142V83.8829Z" fill="#34495E"/>
<path d="M94.9995 58.2857H93.8823V60.7143H94.9995V58.2857Z" fill="#34495E"/>
<path d="M69.5005 35.1171C56.0462 35.1171 45.1177 46.0456 45.1177 59.4999C45.1177 72.9542 56.0462 83.8828 69.5005 83.8828C82.9548 83.8828 93.8834 72.9542 93.8834 59.4999C93.8834 46.0456 82.9548 35.1171 69.5005 35.1171ZM69.5005 73.7313C61.632 73.7313 55.2691 67.3685 55.2691 59.4999C55.2691 51.6314 61.632 45.2685 69.5005 45.2685C77.3691 45.2685 83.732 51.6314 83.732 59.4999C83.732 67.3685 77.3691 73.7313 69.5005 73.7313Z" fill="#E6EAEE"/>
<path d="M69.5003 82.9599C56.5803 82.9599 46.0889 72.4685 46.0889 59.4999C46.0889 46.5799 56.5803 36.0885 69.5003 36.0885C82.4203 36.0885 92.9603 46.5799 92.9603 59.4999C92.9603 72.4199 82.4203 82.9599 69.5003 82.9599ZM69.5003 44.3456C61.146 44.3456 54.346 51.1456 54.346 59.4999C54.346 67.8542 61.146 74.6542 69.5003 74.6542C77.8546 74.6542 84.6546 67.8542 84.6546 59.4999C84.6546 51.1456 77.8546 44.3456 69.5003 44.3456Z" fill="#EEF1F7"/>
<path d="M55.4636 59.5003C55.4636 57.606 55.8522 55.7603 56.5322 54.1089L46.8665 50.126C45.6522 52.9918 44.9722 56.1975 44.9722 59.5003C44.9722 62.8032 45.6522 66.0089 46.8179 68.8746L56.4836 64.8432C55.8522 63.2403 55.4636 61.3946 55.4636 59.5003Z" fill="#FF7059"/>
<path d="M60.126 36.866L64.1574 46.5317C65.8088 45.8517 67.6545 45.4631 69.5488 45.4631C71.4431 45.4631 73.2888 45.8517 74.9403 46.5317L78.9717 36.866C76.0088 35.6517 72.8031 34.9717 69.5003 34.9717C66.1974 34.9717 62.9917 35.6517 60.126 36.866Z" fill="#FF7059"/>
<path d="M92.1345 68.8746C93.3488 65.9603 93.9802 62.8032 93.9802 59.5003C93.9802 56.1975 93.3002 52.9918 92.1345 50.126L82.4688 54.1575C83.1488 55.8089 83.5373 57.6546 83.5373 59.5489C83.5373 61.4432 83.1488 63.2889 82.4688 64.9403L92.1345 68.8746Z" fill="#FF7059"/>
<path d="M78.875 82.1346L74.8436 72.4689C73.1922 73.1489 71.3464 73.5375 69.4522 73.5375C67.5579 73.5375 65.7122 73.1489 64.0607 72.4689L60.0293 82.1346C62.9436 83.3489 66.1007 83.9804 69.4036 83.9804C72.8036 84.0289 76.0093 83.3489 78.875 82.1346Z" fill="#FF7059"/>
<defs>
<filter id="filter0_d_1_2770" x="0" y="0" width="138" height="138" filterUnits="userSpaceOnUse" color-interpolation-filters="sRGB">
<feFlood flood-opacity="0" result="BackgroundImageFix"/>
<feColorMatrix in="SourceAlpha" type="matrix" values="0 0 0 0 0 0 0 0 0 0 0 0 0 0 0 0 0 0 127 0" result="hardAlpha"/>
<feOffset dy="8"/>
<feGaussianBlur stdDeviation="12"/>
<feColorMatrix type="matrix" values="0 0 0 0 0.209553 0 0 0 0 0.374091 0 0 0 0 0.620898 0 0 0 0.1 0"/>
<feBlend mode="normal" in2="BackgroundImageFix" result="effect1_dropShadow_1_2770"/>
<feBlend mode="normal" in="SourceGraphic" in2="effect1_dropShadow_1_2770" result="shape"/>
</filter>
</defs>
</svg>
