<svg width="138" height="138" viewBox="0 0 138 138" fill="none" xmlns="http://www.w3.org/2000/svg">
<g filter="url(#filter0_d_1_2717)">
<circle cx="69" cy="61" r="45" fill="white"/>
</g>
<path d="M72.1609 78.6942H67.8478C67.4504 78.6942 67.1289 79.0157 67.1289 79.413V80.1319C67.1289 81.7176 68.4185 83.0073 70.0043 83.0073C71.5901 83.0073 72.8797 81.7176 72.8797 80.1319V79.413C72.8797 79.0157 72.5582 78.6942 72.1609 78.6942Z" fill="#868491"/>
<path d="M70.0036 78.6942H67.8478C67.4504 78.6942 67.1289 79.0157 67.1289 79.413V80.1319C67.1289 81.7175 68.4181 83.0068 70.0036 83.0072V78.6942Z" fill="#5C546A"/>
<path d="M81.3241 41.4834C77.9642 38.3258 73.5634 36.7442 68.9478 37.0337C60.5363 37.5572 53.7409 44.5737 53.4783 53.0079C53.2846 59.2571 56.5672 65.0107 62.0456 68.0244C63.4075 68.7742 64.2534 70.214 64.2534 71.7829V77.2565C64.2534 78.8422 65.543 80.1319 67.1288 80.1319H72.8796C74.4654 80.1319 75.755 78.8422 75.755 77.2565V71.7829C75.755 70.2154 76.6072 68.772 77.9804 68.0153C83.2588 65.1034 86.5378 59.5547 86.5378 53.5343C86.5378 48.9896 84.6375 44.5971 81.3241 41.4834Z" fill="#FFCD00"/>
<path d="M70.0036 65.036C76.3558 65.036 81.5052 59.8866 81.5052 53.5344C81.5052 47.1822 76.3558 42.0328 70.0036 42.0328C63.6514 42.0328 58.502 47.1822 58.502 53.5344C58.502 59.8866 63.6514 65.036 70.0036 65.036Z" fill="#FFE671"/>
<path d="M72.5186 57.8475C71.5632 57.8475 71.0746 57.2901 70.7187 56.8836C70.4049 56.5256 70.28 56.4098 69.9999 56.4098C69.7211 56.4098 69.597 56.5256 69.2845 56.883C68.949 57.267 68.4414 57.8475 67.486 57.8475C66.5312 57.8475 66.0237 57.267 65.6881 56.883C65.3757 56.5256 65.2515 56.4098 64.9728 56.4098C64.5754 56.4098 64.2539 56.0883 64.2539 55.691C64.2539 55.2936 64.5754 54.9721 64.9728 54.9721C65.9275 54.9721 66.435 55.5527 66.7706 55.9366C67.083 56.294 67.2072 56.4098 67.486 56.4098C67.7647 56.4098 67.8896 56.294 68.202 55.9366C68.5375 55.5527 69.0451 54.9721 69.9999 54.9721C70.9553 54.9721 71.4439 55.5295 71.7998 55.936C72.1136 56.294 72.2386 56.4098 72.5186 56.4098C72.798 56.4098 72.923 56.294 73.2368 55.9366C73.573 55.5527 74.0806 54.9721 75.0367 54.9721C75.434 54.9721 75.7555 55.2936 75.7555 55.691C75.7555 56.0883 75.434 56.4098 75.0367 56.4098C74.7566 56.4098 74.6316 56.5256 74.3178 56.8836C73.9816 57.2677 73.4741 57.8475 72.5186 57.8475Z" fill="white"/>
<path d="M67.8465 71.5056C67.5159 71.5056 67.2182 71.276 67.1445 70.9398L63.5502 54.4062C63.4659 54.018 63.7124 53.6354 64.0999 53.5505C64.4902 53.4649 64.8707 53.7127 64.9556 54.1001L68.5498 70.6337C68.6341 71.0219 68.3876 71.4045 68.0002 71.4894C67.9483 71.5008 67.897 71.5056 67.8465 71.5056Z" fill="#5C546A"/>
<path d="M72.1618 71.5056C72.1112 71.5056 72.06 71.5007 72.0081 71.4894C71.6205 71.4045 71.3741 71.0219 71.4584 70.6337L75.0527 54.1001C75.1376 53.7126 75.5167 53.4655 75.9084 53.5505C76.2959 53.6354 76.5423 54.018 76.458 54.4062L72.8638 70.9398C72.7902 71.2761 72.4925 71.5056 72.1618 71.5056Z" fill="#5C546A"/>
<path d="M64.1294 70.7867C64.2059 71.1096 64.2529 71.4421 64.2529 71.7829V77.2564C64.2529 78.8422 65.5425 80.1318 67.1283 80.1318H72.8791C74.4649 80.1318 75.7545 78.8422 75.7545 77.2564V71.7829C75.7545 71.4423 75.8018 71.1098 75.8788 70.7867H64.1294Z" fill="#B4B6BC"/>
<path d="M70.0032 70.7867H64.1294C64.2059 71.1096 64.2529 71.4421 64.2529 71.7829V77.2564C64.2529 78.8422 65.5425 80.1318 67.1283 80.1318H70.0032V70.7867Z" fill="#868491"/>
<path d="M75.7547 72.9434H70.0039V74.3811H75.7547V72.9434Z" fill="#868491"/>
<path d="M75.7547 75.8187H70.0039V77.2564H75.7547V75.8187Z" fill="#868491"/>
<path d="M70.0047 72.9434H64.2539V74.3811H70.0047V72.9434Z" fill="#5C546A"/>
<path d="M70.0047 75.8187H64.2539V77.2564H70.0047V75.8187Z" fill="#5C546A"/>
<defs>
<filter id="filter0_d_1_2717" x="0" y="0" width="138" height="138" filterUnits="userSpaceOnUse" color-interpolation-filters="sRGB">
<feFlood flood-opacity="0" result="BackgroundImageFix"/>
<feColorMatrix in="SourceAlpha" type="matrix" values="0 0 0 0 0 0 0 0 0 0 0 0 0 0 0 0 0 0 127 0" result="hardAlpha"/>
<feOffset dy="8"/>
<feGaussianBlur stdDeviation="12"/>
<feColorMatrix type="matrix" values="0 0 0 0 0.209553 0 0 0 0 0.374091 0 0 0 0 0.620898 0 0 0 0.1 0"/>
<feBlend mode="normal" in2="BackgroundImageFix" result="effect1_dropShadow_1_2717"/>
<feBlend mode="normal" in="SourceGraphic" in2="effect1_dropShadow_1_2717" result="shape"/>
</filter>
</defs>
</svg>
