<svg width="138" height="138" viewBox="0 0 138 138" fill="none" xmlns="http://www.w3.org/2000/svg">
<g filter="url(#filter0_d_1_2756)">
<circle cx="69" cy="61" r="45" fill="white"/>
</g>
<path d="M79.3487 54.8732L69.9971 87.4998L60.6455 54.8732H79.3487Z" fill="#6BCEF5"/>
<path d="M60.6472 54.8732L69.9988 87.4998L42 54.8732H60.6472Z" fill="#80DCFF"/>
<path d="M79.3516 54.8732L70 87.4998L97.9988 54.8732H79.3516Z" fill="#80DCFF"/>
<path d="M42 54.873L53.6475 41.3003L60.6472 54.873H42Z" fill="#6BCEF5"/>
<path d="M60.6455 54.873L69.9971 41.3003L79.3487 54.873H60.6455Z" fill="#80DCFF"/>
<path d="M53.647 41.3003L60.6467 54.873L69.9982 41.3003H53.647Z" fill="#52BFEB"/>
<path d="M86.3513 41.3003L79.3516 54.873L70 41.3003H86.3513Z" fill="#52BFEB"/>
<path d="M97.9978 54.873L86.3503 41.3003L79.3506 54.873H97.9978Z" fill="#6BCEF5"/>
<defs>
<filter id="filter0_d_1_2756" x="0" y="0" width="138" height="138" filterUnits="userSpaceOnUse" color-interpolation-filters="sRGB">
<feFlood flood-opacity="0" result="BackgroundImageFix"/>
<feColorMatrix in="SourceAlpha" type="matrix" values="0 0 0 0 0 0 0 0 0 0 0 0 0 0 0 0 0 0 127 0" result="hardAlpha"/>
<feOffset dy="8"/>
<feGaussianBlur stdDeviation="12"/>
<feColorMatrix type="matrix" values="0 0 0 0 0.209553 0 0 0 0 0.374091 0 0 0 0 0.620898 0 0 0 0.1 0"/>
<feBlend mode="normal" in2="BackgroundImageFix" result="effect1_dropShadow_1_2756"/>
<feBlend mode="normal" in="SourceGraphic" in2="effect1_dropShadow_1_2756" result="shape"/>
</filter>
</defs>
</svg>
