<svg width="138" height="138" viewBox="0 0 138 138" fill="none" xmlns="http://www.w3.org/2000/svg">
<g filter="url(#filter0_d_1_2790)">
<circle cx="69" cy="61" r="45" fill="white"/>
</g>
<path d="M68.9582 76.1165C79.4838 76.1165 88.0164 67.5839 88.0164 57.0583C88.0164 46.5327 79.4838 38 68.9582 38C58.4326 38 49.8999 46.5327 49.8999 57.0583C49.8999 67.5839 58.4326 76.1165 68.9582 76.1165Z" fill="#FFD15C"/>
<path d="M53.5184 68.2081L46.9609 79.5751L54.6145 79.1688L58.0916 86.0003L64.1578 75.4837C59.8113 74.3593 56.079 71.742 53.5184 68.2081Z" fill="#40596B"/>
<path d="M84.4343 68.1512C81.8925 71.6945 78.1603 74.3213 73.8232 75.4646L79.9083 86L83.3854 79.1685L91.039 79.5748L84.4343 68.1512Z" fill="#40596B"/>
<path d="M68.9572 70.8725C76.5866 70.8725 82.7714 64.6877 82.7714 57.0583C82.7714 49.429 76.5866 43.2441 68.9572 43.2441C61.3279 43.2441 55.1431 49.429 55.1431 57.0583C55.1431 64.6877 61.3279 70.8725 68.9572 70.8725Z" fill="#F8B64C"/>
<path d="M78.4247 55.565C78.8498 55.1492 78.6136 54.4217 78.0278 54.3366L72.5758 53.5429C72.3396 53.5051 72.1412 53.3634 72.0372 53.1461L69.5995 48.2044C69.3349 47.6658 68.5695 47.6658 68.305 48.2044L65.8766 53.1461C65.7727 53.354 65.5648 53.5051 65.338 53.5429L59.8861 54.3366C59.3002 54.4217 59.064 55.1492 59.4892 55.565L63.4294 59.4106C63.5995 59.5807 63.675 59.8169 63.6372 60.0437L62.7113 65.4673C62.6073 66.0532 63.2309 66.5067 63.7601 66.2232L68.6357 63.6626C68.8435 63.5492 69.0987 63.5492 69.3065 63.6626L74.1821 66.2232C74.7113 66.4973 75.3254 66.0532 75.231 65.4673L74.2955 60.0437C74.2577 59.8075 74.3333 59.5713 74.5034 59.4106L78.4247 55.565Z" fill="white"/>
<defs>
<filter id="filter0_d_1_2790" x="0" y="0" width="138" height="138" filterUnits="userSpaceOnUse" color-interpolation-filters="sRGB">
<feFlood flood-opacity="0" result="BackgroundImageFix"/>
<feColorMatrix in="SourceAlpha" type="matrix" values="0 0 0 0 0 0 0 0 0 0 0 0 0 0 0 0 0 0 127 0" result="hardAlpha"/>
<feOffset dy="8"/>
<feGaussianBlur stdDeviation="12"/>
<feColorMatrix type="matrix" values="0 0 0 0 0.209553 0 0 0 0 0.374091 0 0 0 0 0.620898 0 0 0 0.1 0"/>
<feBlend mode="normal" in2="BackgroundImageFix" result="effect1_dropShadow_1_2790"/>
<feBlend mode="normal" in="SourceGraphic" in2="effect1_dropShadow_1_2790" result="shape"/>
</filter>
</defs>
</svg>
