<svg width="138" height="138" viewBox="0 0 138 138" fill="none" xmlns="http://www.w3.org/2000/svg">
<g filter="url(#filter0_d_1_2249)">
<circle cx="69" cy="61" r="45" fill="white"/>
</g>
<path d="M75.9578 73.7584C76.6078 71.5917 77.9078 69.6418 79.6412 68.125C82.8912 65.4167 84.9496 61.3 84.9496 56.75C84.9496 48.3 77.9079 41.3667 69.2412 41.8C61.5495 42.125 55.2661 48.625 55.0495 56.3167C54.9411 61.0834 56.9995 65.3084 60.3579 68.125C62.1995 69.6416 63.4995 71.5916 64.1495 73.7584H75.9578Z" fill="#FFCD1D"/>
<path d="M68.5911 73.975H69.5661L65.2327 57.8333C65.3411 57.8333 65.4494 57.8333 65.5577 57.8333C66.0994 57.8333 66.6411 57.6167 67.0744 57.1833C67.291 56.9667 67.5077 56.8583 67.8327 56.8583C68.1577 56.8583 68.3744 56.9667 68.5911 57.1833C69.3495 58.05 70.6495 58.05 71.4077 57.1833C71.6244 56.9667 71.8411 56.8583 72.1661 56.8583C72.3827 56.8583 72.7077 56.9667 72.9245 57.1833C73.3578 57.6167 73.7911 57.8333 74.4411 57.8333C74.5495 57.8333 74.6577 57.8333 74.7661 57.8333L70.5411 73.975H71.5161L75.9577 57.075C75.9577 56.8583 75.9577 56.6416 75.7411 56.5333C75.5245 56.425 75.3077 56.5333 75.1995 56.6417C74.9828 56.8583 74.7661 56.9667 74.5495 56.9667C74.2245 56.9667 74.0078 56.8583 73.6828 56.6417C73.2495 56.2083 72.8162 55.9917 72.2745 55.9917C71.7327 55.9917 71.2995 56.2083 70.8661 56.6417C70.4327 57.0751 69.7827 57.0751 69.3495 56.6417C69.0245 56.2083 68.4828 55.9917 67.9411 55.9917C67.3995 55.9917 66.8577 56.2083 66.5327 56.6417C66.3161 56.8583 65.9911 56.9667 65.6661 56.9667C65.4495 56.9667 65.1245 56.8583 65.0161 56.6417C64.9077 56.5333 64.6911 56.4251 64.4745 56.5333C64.2578 56.6417 64.1495 56.8583 64.2578 57.075L68.5911 73.975Z" fill="white"/>
<path d="M66.6411 83.7249C67.1828 85.0248 68.4828 85.9998 69.9995 85.9998C71.5161 85.9998 72.8161 85.0248 73.3579 83.7249H66.6411Z" fill="#344A5E"/>
<path d="M74.0073 83.8333H66.0989C65.0156 83.8333 64.1489 82.9666 64.1489 81.8833V73.6499H75.9573V81.8833C75.9573 82.9665 75.0906 83.8333 74.0073 83.8333Z" fill="#344A5E"/>
<path d="M75.8496 77.7666H64.1496C63.4996 77.7666 62.958 77.2249 62.958 76.5749C62.958 75.9249 63.4996 75.3833 64.1496 75.3833H75.8496C76.4996 75.3833 77.0413 75.9249 77.0413 76.5749C77.0413 77.2249 76.4996 77.7666 75.8496 77.7666Z" fill="#415A6B"/>
<path d="M75.8486 81.5583H64.1487C63.4987 81.5583 62.957 81.0167 62.957 80.3667C62.957 79.7167 63.4987 79.175 64.1487 79.175H75.8486C76.4986 79.175 77.0403 79.7167 77.0403 80.3667C77.0403 81.0166 76.4986 81.5583 75.8486 81.5583Z" fill="#415A6B"/>
<path d="M69.9984 34C69.4568 34 68.915 34.4334 68.915 35.0834V38.7667C68.915 39.3084 69.3484 39.8501 69.9984 39.8501C70.6484 39.8501 71.0818 39.4167 71.0818 38.7667V35.0834C71.0818 34.4334 70.54 34 69.9984 34Z" fill="#FFD15C"/>
<path d="M55.4837 40.6085C55.0503 40.1751 54.4003 40.1751 53.9671 40.6085C53.5338 41.0418 53.5337 41.6918 53.9671 42.1251L56.5671 44.7251C57.0004 45.1585 57.6504 45.1585 58.0837 44.7251C58.517 44.2917 58.5171 43.6417 58.0837 43.2085L55.4837 40.6085Z" fill="#FFD15C"/>
<path d="M52.1242 55.5583H48.4408C47.8992 55.5583 47.3574 55.9917 47.3574 56.6417C47.3574 57.1833 47.7908 57.7251 48.4408 57.7251H52.1242C52.6658 57.7251 53.2075 57.2917 53.2075 56.6417C53.2075 56.1 52.6658 55.5583 52.1242 55.5583Z" fill="#FFD15C"/>
<path d="M56.5656 68.5584L53.9657 71.1584C53.5323 71.5918 53.5323 72.2417 53.9657 72.675C54.399 73.1083 55.049 73.1084 55.4823 72.675L58.0823 70.075C58.5156 69.6417 58.5156 68.9917 58.0823 68.5584C57.6489 68.1251 56.999 68.125 56.5656 68.5584Z" fill="#FFD15C"/>
<path d="M83.4336 68.5584C83.0002 68.1251 82.3502 68.1251 81.9168 68.5584C81.4835 68.9918 81.4835 69.6418 81.9168 70.0751L84.5168 72.675C84.9502 73.1084 85.6002 73.1084 86.0335 72.675C86.4667 72.2417 86.4668 71.5917 86.0335 71.1584L83.4336 68.5584Z" fill="#FFD15C"/>
<path d="M91.5568 55.5583H87.8734C87.3318 55.5583 86.79 55.9917 86.79 56.6417C86.79 57.1833 87.2234 57.7251 87.8734 57.7251H91.5568C92.0984 57.7251 92.6401 57.2917 92.6401 56.6417C92.64 56.1 92.2068 55.5583 91.5568 55.5583Z" fill="#FFD15C"/>
<path d="M84.5168 40.6082L81.9168 43.2082C81.4835 43.6416 81.4835 44.2916 81.9168 44.7248C82.3502 45.1582 83.0002 45.1582 83.4334 44.7248L86.0334 42.1248C86.4668 41.6915 86.4668 41.0415 86.0334 40.6082C85.6001 40.1749 84.9502 40.1748 84.5168 40.6082Z" fill="#FFD15C"/>
<defs>
<filter id="filter0_d_1_2249" x="0" y="0" width="138" height="138" filterUnits="userSpaceOnUse" color-interpolation-filters="sRGB">
<feFlood flood-opacity="0" result="BackgroundImageFix"/>
<feColorMatrix in="SourceAlpha" type="matrix" values="0 0 0 0 0 0 0 0 0 0 0 0 0 0 0 0 0 0 127 0" result="hardAlpha"/>
<feOffset dy="8"/>
<feGaussianBlur stdDeviation="12"/>
<feColorMatrix type="matrix" values="0 0 0 0 0.209553 0 0 0 0 0.374091 0 0 0 0 0.620898 0 0 0 0.1 0"/>
<feBlend mode="normal" in2="BackgroundImageFix" result="effect1_dropShadow_1_2249"/>
<feBlend mode="normal" in="SourceGraphic" in2="effect1_dropShadow_1_2249" result="shape"/>
</filter>
</defs>
</svg>
