<svg width="138" height="138" viewBox="0 0 138 138" fill="none" xmlns="http://www.w3.org/2000/svg">
<g filter="url(#filter0_d_1_2303)">
<circle cx="69" cy="61" r="45" fill="white"/>
</g>
<path d="M64.9666 75.2083H73.0332L71.6582 72.2749L70.4666 69.5249H67.5332L66.3415 72.2749L64.9666 75.2083Z" fill="#FF7058"/>
<path d="M59.8333 75.2085H78.1667C79.175 75.2085 80 76.0335 80 77.0418V83.0001H58.0916V77.0418C58 76.0335 58.825 75.2085 59.8333 75.2085Z" fill="#FFD15C"/>
<path d="M66.3414 72.275C67.0748 72.6417 67.8081 73.0083 68.5415 73.2834L68.9998 73.3751L69.4582 73.1917C70.1915 72.9167 70.9248 72.5501 71.6582 72.1834L70.4665 69.4333H67.6248L66.3414 72.275Z" fill="#F1543F"/>
<path d="M91 44.0417V47.8001C91 56.9668 85.3166 64.8501 77.3416 68.1502C74.775 69.2502 71.9333 69.8001 69 69.8001C66.0666 69.8001 63.2249 69.2502 60.6583 68.1502C52.6833 64.8502 46.9999 56.9668 46.9999 47.8002V44.0417H91ZM50.6667 47.8001C50.6667 52.2001 52.225 56.2335 54.8833 59.4418C58.275 63.475 63.3167 66.1335 69 66.1335C74.6832 66.1335 79.725 63.5668 83.1166 59.4418C85.6833 56.3251 87.3332 52.2001 87.3332 47.8001V47.7084H50.7584V47.8001H50.6667Z" fill="#F8B64C"/>
<path d="M54.7003 39H83.3004C83.942 39 84.4004 39.55 84.4004 40.1C84.4004 40.7417 83.9421 41.2917 83.3004 41.2917H54.7003C54.0587 41.2917 53.6003 40.7417 53.6003 40.1917C53.6004 39.55 54.0587 39 54.7003 39Z" fill="#F8B64C"/>
<path d="M54.6988 41.2915V51.1915C54.6988 60.3582 60.3822 68.6999 68.9988 71.9999C77.6155 68.6082 83.2988 60.3582 83.2988 51.0998V41.2915H54.6988Z" fill="#FFD15C"/>
<path d="M68.9997 45.4167L67.0747 51.2834H60.933L65.883 54.95L64.0497 60.8168L68.9997 57.1501L73.9497 60.8168L72.1164 54.95L77.0664 51.2834H70.9247L68.9997 45.4167Z" fill="white"/>
<path d="M54.7925 41.2915H83.3008V42.6665H54.7925V41.2915Z" fill="#FFC952"/>
<defs>
<filter id="filter0_d_1_2303" x="0" y="0" width="138" height="138" filterUnits="userSpaceOnUse" color-interpolation-filters="sRGB">
<feFlood flood-opacity="0" result="BackgroundImageFix"/>
<feColorMatrix in="SourceAlpha" type="matrix" values="0 0 0 0 0 0 0 0 0 0 0 0 0 0 0 0 0 0 127 0" result="hardAlpha"/>
<feOffset dy="8"/>
<feGaussianBlur stdDeviation="12"/>
<feColorMatrix type="matrix" values="0 0 0 0 0.209553 0 0 0 0 0.374091 0 0 0 0 0.620898 0 0 0 0.1 0"/>
<feBlend mode="normal" in2="BackgroundImageFix" result="effect1_dropShadow_1_2303"/>
<feBlend mode="normal" in="SourceGraphic" in2="effect1_dropShadow_1_2303" result="shape"/>
</filter>
</defs>
</svg>
