<svg width="138" height="138" viewBox="0 0 138 138" fill="none" xmlns="http://www.w3.org/2000/svg">
<g filter="url(#filter0_d_1_2271)">
<circle cx="69" cy="61" r="45" fill="white"/>
</g>
<path d="M87.4468 43.551L87.8364 39.2666C87.8743 38.8488 88.0576 38.4577 88.3542 38.161L93.7225 32.7926C94.0725 32.4425 94.6403 32.4425 94.9903 32.7926L98.2051 36.0074C98.5552 36.3574 98.5552 36.9252 98.2051 37.2752L92.8367 42.6437C92.54 42.9404 92.1488 43.1236 91.7311 43.1615L87.4468 43.551Z" fill="#FF6464"/>
<path d="M69.5162 82.9985C81.3995 82.9985 91.0329 73.3651 91.0329 61.4818C91.0329 49.5984 81.3995 39.9651 69.5162 39.9651C57.6329 39.9651 47.9995 49.5984 47.9995 61.4818C47.9995 73.3651 57.6329 82.9985 69.5162 82.9985Z" fill="#FF6464"/>
<path d="M69.5179 77.6203C78.4305 77.6203 85.6555 70.3953 85.6555 61.4828C85.6555 52.5702 78.4305 45.3452 69.5179 45.3452C60.6054 45.3452 53.3804 52.5702 53.3804 61.4828C53.3804 70.3953 60.6054 77.6203 69.5179 77.6203Z" fill="white"/>
<path d="M69.5176 72.2408C75.4593 72.2408 80.276 67.4241 80.276 61.4825C80.276 55.5408 75.4593 50.7241 69.5176 50.7241C63.5759 50.7241 58.7593 55.5408 58.7593 61.4825C58.7593 67.4241 63.5759 72.2408 69.5176 72.2408Z" fill="#FF6464"/>
<path d="M69.5174 66.862C72.4883 66.862 74.8966 64.4536 74.8966 61.4827C74.8966 58.5119 72.4883 56.1035 69.5174 56.1035C66.5465 56.1035 64.1382 58.5119 64.1382 61.4827C64.1382 64.4536 66.5465 66.862 69.5174 66.862Z" fill="white"/>
<path d="M69.5156 62.3792C69.2862 62.3792 69.0568 62.2916 68.8818 62.1165C68.5316 61.7664 68.5316 61.199 68.8818 60.8488L98.4672 31.2634C98.8174 30.9132 99.3848 30.9132 99.735 31.2634C100.085 31.6135 100.085 32.1809 99.735 32.531L70.1495 62.1164C69.9745 62.2917 69.745 62.3792 69.5156 62.3792Z" fill="#464655"/>
<path d="M99.7371 31.2634C99.387 30.9132 98.8195 30.9132 98.4694 31.2634L96.939 32.7938L98.2067 34.0614L99.7371 32.531C100.087 32.1809 100.087 31.6136 99.7371 31.2634Z" fill="#FF6464"/>
<defs>
<filter id="filter0_d_1_2271" x="0" y="0" width="138" height="138" filterUnits="userSpaceOnUse" color-interpolation-filters="sRGB">
<feFlood flood-opacity="0" result="BackgroundImageFix"/>
<feColorMatrix in="SourceAlpha" type="matrix" values="0 0 0 0 0 0 0 0 0 0 0 0 0 0 0 0 0 0 127 0" result="hardAlpha"/>
<feOffset dy="8"/>
<feGaussianBlur stdDeviation="12"/>
<feColorMatrix type="matrix" values="0 0 0 0 0.209553 0 0 0 0 0.374091 0 0 0 0 0.620898 0 0 0 0.1 0"/>
<feBlend mode="normal" in2="BackgroundImageFix" result="effect1_dropShadow_1_2271"/>
<feBlend mode="normal" in="SourceGraphic" in2="effect1_dropShadow_1_2271" result="shape"/>
</filter>
</defs>
</svg>
