<svg width="138" height="138" viewBox="0 0 138 138" fill="none" xmlns="http://www.w3.org/2000/svg">
<g filter="url(#filter0_d_1_2285)">
<circle cx="69" cy="61" r="45" fill="white"/>
</g>
<g clip-path="url(#clip0_1_2285)">
<path d="M58.1805 54.7919C55.2226 54.3898 51.7721 55.6686 49.3903 58.0508L45.4129 62.0282C44.9632 62.4779 44.8709 63.1741 45.1895 63.7256C45.5004 64.2698 46.1515 64.547 46.7712 64.3811C49.2951 63.7044 52.6357 63.4792 53.4571 64.1065L58.1805 54.7919Z" fill="#FF637B"/>
<path d="M75.1211 71.8408L65.7929 76.3408C66.3126 77.0487 66.2716 79.2877 65.6658 83.3878C65.5754 83.9943 65.8889 84.5813 66.4243 84.849C66.9659 85.1229 67.6214 85.0171 68.0506 84.5879L72.028 80.6105C74.2751 78.3634 75.4898 74.921 75.1211 71.8408Z" fill="#E63950"/>
<path d="M67.1968 76.8207C63.9155 78.5906 63.498 78.6902 63.0007 79.0282C62.4437 79.386 61.7278 79.3065 61.2506 78.8293L51.3069 68.8856C50.8495 68.4282 50.7502 67.6921 51.108 67.1355C51.446 66.6382 51.4859 66.3199 53.2756 62.8995L57.2135 62.8596L67.1572 72.8033L67.1968 76.8207Z" fill="#7C8388"/>
<path d="M67.196 76.8207C63.9148 78.5906 63.4973 78.6902 63 79.0282C62.443 79.386 61.7271 79.3065 61.2499 78.8293L56.2778 73.8573L62.2441 67.8914L67.1561 72.8033L67.196 76.8207Z" fill="#575F64"/>
<path d="M67.196 76.8207L53.2749 62.8996C60.1758 49.8735 68.469 41.7392 78.0944 38.5576L84.8561 45.2794L91.4585 51.8822C88.2769 61.4677 80.1628 69.8202 67.196 76.8207Z" fill="#FAECD8"/>
<path d="M67.1967 76.8207L60.2559 69.8799L84.8568 45.2793L91.4592 51.8817C88.2776 61.4677 80.1635 69.8202 67.1967 76.8207Z" fill="#F4D7AF"/>
<path d="M80.5212 49.6149L80.4615 49.5552C77.7171 46.8109 73.2621 46.8105 70.5178 49.5552C67.7734 52.2996 67.7734 56.7546 70.5178 59.4986L70.5775 59.5583C73.3218 62.2232 77.7369 62.2232 80.4615 59.4986C83.1861 56.7744 83.1861 52.359 80.5212 49.6149Z" fill="#64E1DC"/>
<path d="M80.4612 59.4986C77.7366 62.2233 73.3215 62.2233 70.5771 59.5583L80.5209 49.615C83.1858 52.359 83.1858 56.7744 80.4612 59.4986Z" fill="#00C8C8"/>
<path d="M91.4588 51.8818C88.4164 51.6631 85.1549 50.2313 82.5098 47.626L82.4501 47.5663C79.7852 44.9014 78.2936 41.6198 78.0947 38.5572C79.0095 38.2389 79.9441 37.9804 80.879 37.7618C84.2796 36.9861 87.8396 36.8071 91.5387 37.2051C91.8964 37.2447 92.2345 37.4238 92.4333 37.7021C92.6322 37.9009 92.7717 38.1595 92.7915 38.4579C93.2093 42.1369 92.9903 45.6968 92.2147 49.0975C91.9961 50.0324 91.7573 50.9472 91.4588 51.8818Z" fill="#FF637B"/>
<path d="M91.4594 51.8818C88.4169 51.6632 85.1554 50.2313 82.5103 47.6261L92.4338 37.7021C92.6327 37.901 92.7719 38.1595 92.792 38.458C93.2095 42.1373 92.9908 45.6969 92.2152 49.0975C91.9966 50.0325 91.7578 50.9473 91.4594 51.8818Z" fill="#E63950"/>
<path d="M66.9574 64.4508C66.9376 64.1125 66.7985 63.8144 66.5597 63.5756C66.3209 63.2574 65.9434 63.0387 65.5457 63.0387C60.3748 62.9988 59.2212 64.8284 58.9231 65.1269C50.312 73.7379 50.2124 77.9743 50.2124 78.4115C50.2322 78.7894 50.3713 79.1278 50.6299 79.386C50.6497 79.4058 50.6698 79.4259 50.7097 79.4259C50.9086 79.6248 51.1869 79.7442 51.485 79.7639C52.2009 79.8434 56.238 79.7442 64.889 71.0932C66.8384 69.1442 66.9775 67.3344 66.9574 64.4508Z" fill="#FF637B"/>
<path d="M66.9576 64.4507C66.9778 67.3342 66.8386 69.144 64.8893 71.093C56.2383 79.744 52.2012 79.8433 51.4856 79.7638C51.1871 79.744 50.9088 79.6246 50.71 79.4258L66.5603 63.5754C66.7987 63.8142 66.9379 64.1123 66.9576 64.4507Z" fill="#E63950"/>
</g>
<defs>
<filter id="filter0_d_1_2285" x="0" y="0" width="138" height="138" filterUnits="userSpaceOnUse" color-interpolation-filters="sRGB">
<feFlood flood-opacity="0" result="BackgroundImageFix"/>
<feColorMatrix in="SourceAlpha" type="matrix" values="0 0 0 0 0 0 0 0 0 0 0 0 0 0 0 0 0 0 127 0" result="hardAlpha"/>
<feOffset dy="8"/>
<feGaussianBlur stdDeviation="12"/>
<feColorMatrix type="matrix" values="0 0 0 0 0.209553 0 0 0 0 0.374091 0 0 0 0 0.620898 0 0 0 0.1 0"/>
<feBlend mode="normal" in2="BackgroundImageFix" result="effect1_dropShadow_1_2285"/>
<feBlend mode="normal" in="SourceGraphic" in2="effect1_dropShadow_1_2285" result="shape"/>
</filter>
<clipPath id="clip0_1_2285">
<rect width="48" height="48" fill="white" transform="translate(45 37)"/>
</clipPath>
</defs>
</svg>
