<svg width="500" height="520" viewBox="0 0 500 520" fill="none" xmlns="http://www.w3.org/2000/svg">
<g filter="url(#filter0_d_1_2336)">
<rect x="100" y="75" width="300" height="320" rx="10" fill="white"/>
</g>
<path d="M203.961 173.736C207.753 173.736 210.945 174.432 213.537 175.824C216.129 177.216 218.217 179.088 219.801 181.44C221.385 183.792 222.513 186.408 223.185 189.288C223.905 192.168 224.265 195.12 224.265 198.144C224.265 203.76 223.473 208.656 221.889 212.832C220.305 216.96 218.025 220.176 215.049 222.48C212.073 224.736 208.473 225.864 204.249 225.864C200.793 225.864 197.841 225.192 195.393 223.848C192.993 222.456 191.121 220.656 189.777 218.448C188.433 216.24 187.641 213.864 187.401 211.32H195.969C196.401 213.528 197.337 215.232 198.777 216.432C200.217 217.632 202.065 218.232 204.321 218.232C207.537 218.232 210.129 216.768 212.097 213.84C214.065 210.864 215.121 206.352 215.265 200.304C214.113 202.272 212.385 203.904 210.081 205.2C207.777 206.496 205.209 207.144 202.377 207.144C199.593 207.144 196.977 206.472 194.529 205.128C192.081 203.784 190.089 201.888 188.553 199.44C187.065 196.992 186.321 194.112 186.321 190.8C186.321 187.776 187.041 184.968 188.481 182.376C189.969 179.784 192.033 177.696 194.673 176.112C197.361 174.528 200.457 173.736 203.961 173.736ZM204.465 181.656C201.777 181.656 199.545 182.496 197.769 184.176C196.041 185.808 195.177 187.896 195.177 190.44C195.177 193.128 196.065 195.288 197.841 196.92C199.617 198.552 201.873 199.368 204.609 199.368C206.385 199.368 207.969 198.984 209.361 198.216C210.801 197.4 211.929 196.344 212.745 195.048C213.561 193.704 213.969 192.216 213.969 190.584C213.969 187.992 213.057 185.856 211.233 184.176C209.457 182.496 207.201 181.656 204.465 181.656ZM251.837 225.864C247.181 225.864 243.197 224.784 239.885 222.624C236.573 220.416 234.005 217.368 232.181 213.48C230.405 209.544 229.517 204.984 229.517 199.8C229.517 194.664 230.405 190.128 232.181 186.192C234.005 182.256 236.573 179.208 239.885 177.048C243.197 174.84 247.181 173.736 251.837 173.736C256.493 173.736 260.477 174.84 263.789 177.048C267.101 179.208 269.645 182.256 271.421 186.192C273.245 190.128 274.157 194.664 274.157 199.8C274.157 204.984 273.245 209.544 271.421 213.48C269.645 217.368 267.101 220.416 263.789 222.624C260.477 224.784 256.493 225.864 251.837 225.864ZM251.837 217.584C255.629 217.584 258.725 216 261.125 212.832C263.525 209.664 264.725 205.32 264.725 199.8C264.725 194.28 263.525 189.936 261.125 186.768C258.725 183.6 255.629 182.016 251.837 182.016C247.997 182.016 244.877 183.6 242.477 186.768C240.125 189.936 238.949 194.28 238.949 199.8C238.949 205.32 240.125 209.664 242.477 212.832C244.877 216 247.997 217.584 251.837 217.584ZM279.927 208.008V200.304H293.463V187.848H301.311V200.304H314.775V208.008H301.311V220.464H293.463V208.008H279.927Z" fill="#FA578E"/>
<path opacity="0.7" d="M179.172 266V254.1H182.827C184.924 254.1 186.465 254.633 187.451 255.698C188.449 256.763 188.947 258.225 188.947 260.084C188.947 261.909 188.449 263.354 187.451 264.419C186.465 265.473 184.924 266 182.827 266H179.172ZM180.6 264.81H182.793C183.949 264.81 184.867 264.623 185.547 264.249C186.239 263.864 186.732 263.32 187.026 262.617C187.321 261.903 187.468 261.059 187.468 260.084C187.468 259.087 187.321 258.231 187.026 257.517C186.732 256.803 186.239 256.253 185.547 255.868C184.867 255.483 183.949 255.29 182.793 255.29H180.6V264.81ZM193.529 266.204C192.827 266.204 192.243 266.085 191.778 265.847C191.314 265.609 190.968 265.292 190.741 264.895C190.515 264.498 190.401 264.068 190.401 263.603C190.401 262.742 190.73 262.079 191.387 261.614C192.045 261.149 192.94 260.917 194.073 260.917H196.351V260.815C196.351 260.078 196.159 259.523 195.773 259.149C195.388 258.764 194.872 258.571 194.226 258.571C193.671 258.571 193.189 258.713 192.781 258.996C192.385 259.268 192.135 259.67 192.033 260.203H190.571C190.628 259.591 190.832 259.075 191.183 258.656C191.546 258.237 191.994 257.919 192.526 257.704C193.059 257.477 193.626 257.364 194.226 257.364C195.405 257.364 196.289 257.681 196.878 258.316C197.479 258.939 197.779 259.772 197.779 260.815V266H196.504L196.419 264.487C196.181 264.963 195.83 265.371 195.365 265.711C194.912 266.04 194.3 266.204 193.529 266.204ZM193.75 264.997C194.294 264.997 194.759 264.855 195.144 264.572C195.541 264.289 195.841 263.92 196.045 263.467C196.249 263.014 196.351 262.538 196.351 262.039V262.022H194.192C193.354 262.022 192.759 262.169 192.407 262.464C192.067 262.747 191.897 263.104 191.897 263.535C191.897 263.977 192.056 264.334 192.373 264.606C192.702 264.867 193.161 264.997 193.75 264.997ZM200.589 255.698C200.305 255.698 200.067 255.607 199.875 255.426C199.693 255.233 199.603 254.995 199.603 254.712C199.603 254.44 199.693 254.213 199.875 254.032C200.067 253.851 200.305 253.76 200.589 253.76C200.861 253.76 201.093 253.851 201.286 254.032C201.478 254.213 201.575 254.44 201.575 254.712C201.575 254.995 201.478 255.233 201.286 255.426C201.093 255.607 200.861 255.698 200.589 255.698ZM199.875 266V257.568H201.303V266H199.875ZM203.589 266V253.76H205.017V266H203.589ZM208.075 269.74L210.166 265.184H209.673L206.324 257.568H207.871L210.659 264.13L213.617 257.568H215.096L209.571 269.74H208.075ZM228.081 257.568V266H226.789L226.704 264.487C226.432 265.02 226.041 265.439 225.531 265.745C225.021 266.051 224.443 266.204 223.797 266.204C222.799 266.204 222 265.904 221.4 265.303C220.81 264.691 220.516 263.756 220.516 262.498V257.568H221.944V262.345C221.944 264.102 222.669 264.98 224.12 264.98C224.845 264.98 225.446 264.719 225.922 264.198C226.409 263.665 226.653 262.912 226.653 261.937V257.568H228.081ZM230.231 269.74V257.568H231.523L231.659 258.962C231.931 258.554 232.317 258.186 232.815 257.857C233.325 257.528 233.971 257.364 234.753 257.364C235.592 257.364 236.323 257.557 236.946 257.942C237.57 258.327 238.051 258.854 238.391 259.523C238.743 260.192 238.918 260.951 238.918 261.801C238.918 262.651 238.743 263.41 238.391 264.079C238.051 264.736 237.564 265.258 236.929 265.643C236.306 266.017 235.575 266.204 234.736 266.204C234.045 266.204 233.427 266.062 232.883 265.779C232.351 265.496 231.943 265.099 231.659 264.589V269.74H230.231ZM234.583 264.963C235.15 264.963 235.649 264.833 236.079 264.572C236.51 264.3 236.85 263.926 237.099 263.45C237.349 262.974 237.473 262.419 237.473 261.784C237.473 261.149 237.349 260.594 237.099 260.118C236.85 259.642 236.51 259.274 236.079 259.013C235.649 258.741 235.15 258.605 234.583 258.605C234.017 258.605 233.518 258.741 233.087 259.013C232.657 259.274 232.317 259.642 232.067 260.118C231.818 260.594 231.693 261.149 231.693 261.784C231.693 262.419 231.818 262.974 232.067 263.45C232.317 263.926 232.657 264.3 233.087 264.572C233.518 264.833 234.017 264.963 234.583 264.963ZM244.531 266.204C243.692 266.204 242.956 266.011 242.321 265.626C241.698 265.241 241.21 264.714 240.859 264.045C240.519 263.376 240.349 262.617 240.349 261.767C240.349 260.917 240.525 260.163 240.876 259.506C241.227 258.837 241.715 258.316 242.338 257.942C242.961 257.557 243.698 257.364 244.548 257.364C245.239 257.364 245.851 257.506 246.384 257.789C246.917 258.072 247.33 258.469 247.625 258.979V253.76H249.053V266H247.761L247.625 264.606C247.353 265.014 246.962 265.382 246.452 265.711C245.942 266.04 245.302 266.204 244.531 266.204ZM244.684 264.963C245.251 264.963 245.749 264.833 246.18 264.572C246.622 264.3 246.962 263.926 247.2 263.45C247.449 262.974 247.574 262.419 247.574 261.784C247.574 261.149 247.449 260.594 247.2 260.118C246.962 259.642 246.622 259.274 246.18 259.013C245.749 258.741 245.251 258.605 244.684 258.605C244.129 258.605 243.63 258.741 243.188 259.013C242.757 259.274 242.417 259.642 242.168 260.118C241.93 260.594 241.811 261.149 241.811 261.784C241.811 262.419 241.93 262.974 242.168 263.45C242.417 263.926 242.757 264.3 243.188 264.572C243.63 264.833 244.129 264.963 244.684 264.963ZM253.986 266.204C253.283 266.204 252.7 266.085 252.235 265.847C251.77 265.609 251.425 265.292 251.198 264.895C250.971 264.498 250.858 264.068 250.858 263.603C250.858 262.742 251.187 262.079 251.844 261.614C252.501 261.149 253.397 260.917 254.53 260.917H256.808V260.815C256.808 260.078 256.615 259.523 256.23 259.149C255.845 258.764 255.329 258.571 254.683 258.571C254.128 258.571 253.646 258.713 253.238 258.996C252.841 259.268 252.592 259.67 252.49 260.203H251.028C251.085 259.591 251.289 259.075 251.64 258.656C252.003 258.237 252.45 257.919 252.983 257.704C253.516 257.477 254.082 257.364 254.683 257.364C255.862 257.364 256.746 257.681 257.335 258.316C257.936 258.939 258.236 259.772 258.236 260.815V266H256.961L256.876 264.487C256.638 264.963 256.287 265.371 255.822 265.711C255.369 266.04 254.757 266.204 253.986 266.204ZM254.207 264.997C254.751 264.997 255.216 264.855 255.601 264.572C255.998 264.289 256.298 263.92 256.502 263.467C256.706 263.014 256.808 262.538 256.808 262.039V262.022H254.649C253.81 262.022 253.215 262.169 252.864 262.464C252.524 262.747 252.354 263.104 252.354 263.535C252.354 263.977 252.513 264.334 252.83 264.606C253.159 264.867 253.618 264.997 254.207 264.997ZM263.278 266C262.507 266 261.901 265.813 261.459 265.439C261.017 265.065 260.796 264.391 260.796 263.416V258.775H259.334V257.568H260.796L260.983 255.545H262.224V257.568H264.706V258.775H262.224V263.416C262.224 263.949 262.331 264.311 262.547 264.504C262.762 264.685 263.142 264.776 263.686 264.776H264.57V266H263.278ZM269.879 266.204C269.074 266.204 268.36 266.023 267.737 265.66C267.113 265.286 266.62 264.77 266.258 264.113C265.906 263.456 265.731 262.679 265.731 261.784C265.731 260.9 265.906 260.129 266.258 259.472C266.609 258.803 267.096 258.288 267.72 257.925C268.354 257.551 269.085 257.364 269.913 257.364C270.729 257.364 271.431 257.551 272.021 257.925C272.621 258.288 273.08 258.769 273.398 259.37C273.715 259.971 273.874 260.617 273.874 261.308C273.874 261.433 273.868 261.557 273.857 261.682C273.857 261.807 273.857 261.948 273.857 262.107H267.142C267.176 262.753 267.323 263.291 267.584 263.722C267.856 264.141 268.19 264.459 268.587 264.674C268.995 264.889 269.425 264.997 269.879 264.997C270.468 264.997 270.961 264.861 271.358 264.589C271.754 264.317 272.043 263.949 272.225 263.484H273.636C273.409 264.266 272.973 264.918 272.327 265.439C271.692 265.949 270.876 266.204 269.879 266.204ZM269.879 258.571C269.199 258.571 268.592 258.781 268.06 259.2C267.538 259.608 267.238 260.209 267.159 261.002H272.463C272.429 260.243 272.168 259.648 271.681 259.217C271.193 258.786 270.593 258.571 269.879 258.571ZM279.391 266.204C278.553 266.204 277.816 266.011 277.181 265.626C276.558 265.241 276.071 264.714 275.719 264.045C275.379 263.376 275.209 262.617 275.209 261.767C275.209 260.917 275.385 260.163 275.736 259.506C276.088 258.837 276.575 258.316 277.198 257.942C277.822 257.557 278.558 257.364 279.408 257.364C280.1 257.364 280.712 257.506 281.244 257.789C281.777 258.072 282.191 258.469 282.485 258.979V253.76H283.913V266H282.621L282.485 264.606C282.213 265.014 281.822 265.382 281.312 265.711C280.802 266.04 280.162 266.204 279.391 266.204ZM279.544 264.963C280.111 264.963 280.61 264.833 281.04 264.572C281.482 264.3 281.822 263.926 282.06 263.45C282.31 262.974 282.434 262.419 282.434 261.784C282.434 261.149 282.31 260.594 282.06 260.118C281.822 259.642 281.482 259.274 281.04 259.013C280.61 258.741 280.111 258.605 279.544 258.605C278.989 258.605 278.49 258.741 278.048 259.013C277.618 259.274 277.278 259.642 277.028 260.118C276.79 260.594 276.671 261.149 276.671 261.784C276.671 262.419 276.79 262.974 277.028 263.45C277.278 263.926 277.618 264.3 278.048 264.572C278.49 264.833 278.989 264.963 279.544 264.963ZM294.845 266.204C294.154 266.204 293.536 266.062 292.992 265.779C292.459 265.496 292.051 265.099 291.768 264.589L291.632 266H290.34V253.76H291.768V258.962C292.04 258.554 292.425 258.186 292.924 257.857C293.434 257.528 294.08 257.364 294.862 257.364C295.701 257.364 296.432 257.557 297.055 257.942C297.678 258.327 298.16 258.854 298.5 259.523C298.851 260.192 299.027 260.951 299.027 261.801C299.027 262.651 298.851 263.41 298.5 264.079C298.16 264.736 297.673 265.258 297.038 265.643C296.415 266.017 295.684 266.204 294.845 266.204ZM294.692 264.963C295.259 264.963 295.757 264.833 296.188 264.572C296.619 264.3 296.959 263.926 297.208 263.45C297.457 262.974 297.582 262.419 297.582 261.784C297.582 261.149 297.457 260.594 297.208 260.118C296.959 259.642 296.619 259.274 296.188 259.013C295.757 258.741 295.259 258.605 294.692 258.605C294.125 258.605 293.627 258.741 293.196 259.013C292.765 259.274 292.425 259.642 292.176 260.118C291.927 260.594 291.802 261.149 291.802 261.784C291.802 262.419 291.927 262.974 292.176 263.45C292.425 263.926 292.765 264.3 293.196 264.572C293.627 264.833 294.125 264.963 294.692 264.963ZM300.815 266V253.76H302.243V266H300.815ZM308.225 266.204C307.432 266.204 306.718 266.023 306.083 265.66C305.449 265.297 304.944 264.787 304.57 264.13C304.208 263.461 304.026 262.679 304.026 261.784C304.026 260.889 304.213 260.112 304.587 259.455C304.961 258.786 305.466 258.271 306.1 257.908C306.746 257.545 307.466 257.364 308.259 257.364C309.053 257.364 309.767 257.545 310.401 257.908C311.036 258.271 311.535 258.786 311.897 259.455C312.271 260.112 312.458 260.889 312.458 261.784C312.458 262.679 312.271 263.461 311.897 264.13C311.523 264.787 311.013 265.297 310.367 265.66C309.733 266.023 309.019 266.204 308.225 266.204ZM308.225 264.98C308.713 264.98 309.166 264.861 309.585 264.623C310.005 264.385 310.345 264.028 310.605 263.552C310.866 263.076 310.996 262.487 310.996 261.784C310.996 261.081 310.866 260.492 310.605 260.016C310.356 259.54 310.022 259.183 309.602 258.945C309.183 258.707 308.735 258.588 308.259 258.588C307.772 258.588 307.319 258.707 306.899 258.945C306.48 259.183 306.14 259.54 305.879 260.016C305.619 260.492 305.488 261.081 305.488 261.784C305.488 262.487 305.619 263.076 305.879 263.552C306.14 264.028 306.474 264.385 306.882 264.623C307.302 264.861 307.749 264.98 308.225 264.98ZM317.211 263.348C316.735 263.348 316.298 263.286 315.902 263.161L315.052 263.96C315.176 264.051 315.329 264.13 315.511 264.198C315.703 264.255 315.975 264.311 316.327 264.368C316.678 264.413 317.171 264.464 317.806 264.521C318.939 264.6 319.749 264.861 320.237 265.303C320.724 265.745 320.968 266.323 320.968 267.037C320.968 267.524 320.832 267.989 320.56 268.431C320.299 268.873 319.891 269.236 319.336 269.519C318.792 269.802 318.089 269.944 317.228 269.944C316.468 269.944 315.794 269.842 315.205 269.638C314.615 269.445 314.156 269.145 313.828 268.737C313.499 268.34 313.335 267.836 313.335 267.224C313.335 266.907 313.42 266.561 313.59 266.187C313.76 265.824 314.077 265.479 314.542 265.15C314.292 265.048 314.077 264.94 313.896 264.827C313.726 264.702 313.567 264.566 313.42 264.419V264.028L314.865 262.6C314.196 262.033 313.862 261.285 313.862 260.356C313.862 259.801 313.992 259.296 314.253 258.843C314.513 258.39 314.893 258.033 315.392 257.772C315.89 257.5 316.497 257.364 317.211 257.364C317.698 257.364 318.14 257.432 318.537 257.568H321.648V258.639L320.067 258.707C320.395 259.183 320.56 259.733 320.56 260.356C320.56 260.911 320.424 261.416 320.152 261.869C319.891 262.322 319.511 262.685 319.013 262.957C318.525 263.218 317.925 263.348 317.211 263.348ZM317.211 262.175C317.811 262.175 318.287 262.022 318.639 261.716C319.001 261.399 319.183 260.945 319.183 260.356C319.183 259.778 319.001 259.336 318.639 259.03C318.287 258.713 317.811 258.554 317.211 258.554C316.599 258.554 316.111 258.713 315.749 259.03C315.397 259.336 315.222 259.778 315.222 260.356C315.222 260.945 315.397 261.399 315.749 261.716C316.111 262.022 316.599 262.175 317.211 262.175ZM314.729 267.088C314.729 267.655 314.967 268.074 315.443 268.346C315.919 268.629 316.514 268.771 317.228 268.771C317.93 268.771 318.491 268.618 318.911 268.312C319.341 268.006 319.557 267.598 319.557 267.088C319.557 266.725 319.409 266.408 319.115 266.136C318.82 265.875 318.276 265.722 317.483 265.677C316.859 265.632 316.321 265.575 315.868 265.507C315.403 265.756 315.097 266.023 314.95 266.306C314.802 266.601 314.729 266.861 314.729 267.088ZM198.526 295.74V283.568H199.818L199.954 284.962C200.226 284.554 200.611 284.186 201.11 283.857C201.62 283.528 202.266 283.364 203.048 283.364C203.886 283.364 204.617 283.557 205.241 283.942C205.864 284.327 206.346 284.854 206.686 285.523C207.037 286.192 207.213 286.951 207.213 287.801C207.213 288.651 207.037 289.41 206.686 290.079C206.346 290.736 205.859 291.258 205.224 291.643C204.6 292.017 203.869 292.204 203.031 292.204C202.339 292.204 201.722 292.062 201.178 291.779C200.645 291.496 200.237 291.099 199.954 290.589V295.74H198.526ZM202.878 290.963C203.444 290.963 203.943 290.833 204.374 290.572C204.804 290.3 205.144 289.926 205.394 289.45C205.643 288.974 205.768 288.419 205.768 287.784C205.768 287.149 205.643 286.594 205.394 286.118C205.144 285.642 204.804 285.274 204.374 285.013C203.943 284.741 203.444 284.605 202.878 284.605C202.311 284.605 201.812 284.741 201.382 285.013C200.951 285.274 200.611 285.642 200.362 286.118C200.112 286.594 199.988 287.149 199.988 287.784C199.988 288.419 200.112 288.974 200.362 289.45C200.611 289.926 200.951 290.3 201.382 290.572C201.812 290.833 202.311 290.963 202.878 290.963ZM212.843 292.204C212.049 292.204 211.335 292.023 210.701 291.66C210.066 291.297 209.562 290.787 209.188 290.13C208.825 289.461 208.644 288.679 208.644 287.784C208.644 286.889 208.831 286.112 209.205 285.455C209.579 284.786 210.083 284.271 210.718 283.908C211.364 283.545 212.083 283.364 212.877 283.364C213.67 283.364 214.384 283.545 215.019 283.908C215.653 284.271 216.152 284.786 216.515 285.455C216.889 286.112 217.076 286.889 217.076 287.784C217.076 288.679 216.889 289.461 216.515 290.13C216.141 290.787 215.631 291.297 214.985 291.66C214.35 292.023 213.636 292.204 212.843 292.204ZM212.843 290.98C213.33 290.98 213.783 290.861 214.203 290.623C214.622 290.385 214.962 290.028 215.223 289.552C215.483 289.076 215.614 288.487 215.614 287.784C215.614 287.081 215.483 286.492 215.223 286.016C214.973 285.54 214.639 285.183 214.22 284.945C213.8 284.707 213.353 284.588 212.877 284.588C212.389 284.588 211.936 284.707 211.517 284.945C211.097 285.183 210.757 285.54 210.497 286.016C210.236 286.492 210.106 287.081 210.106 287.784C210.106 288.487 210.236 289.076 210.497 289.552C210.757 290.028 211.092 290.385 211.5 290.623C211.919 290.861 212.367 290.98 212.843 290.98ZM222.091 292.204C221.083 292.204 220.244 291.949 219.575 291.439C218.907 290.929 218.516 290.238 218.402 289.365H219.864C219.955 289.807 220.187 290.192 220.561 290.521C220.947 290.838 221.462 290.997 222.108 290.997C222.709 290.997 223.151 290.872 223.434 290.623C223.718 290.362 223.859 290.056 223.859 289.705C223.859 289.195 223.672 288.855 223.298 288.685C222.936 288.515 222.42 288.362 221.751 288.226C221.298 288.135 220.845 288.005 220.391 287.835C219.938 287.665 219.558 287.427 219.252 287.121C218.946 286.804 218.793 286.39 218.793 285.88C218.793 285.143 219.065 284.543 219.609 284.078C220.165 283.602 220.913 283.364 221.853 283.364C222.749 283.364 223.48 283.591 224.046 284.044C224.624 284.486 224.959 285.121 225.049 285.948H223.638C223.582 285.517 223.395 285.183 223.077 284.945C222.771 284.696 222.358 284.571 221.836 284.571C221.326 284.571 220.93 284.679 220.646 284.894C220.374 285.109 220.238 285.393 220.238 285.744C220.238 286.084 220.414 286.35 220.765 286.543C221.128 286.736 221.615 286.9 222.227 287.036C222.749 287.149 223.242 287.291 223.706 287.461C224.182 287.62 224.568 287.863 224.862 288.192C225.168 288.509 225.321 288.974 225.321 289.586C225.333 290.345 225.044 290.974 224.454 291.473C223.876 291.96 223.089 292.204 222.091 292.204ZM230.111 292C229.341 292 228.734 291.813 228.292 291.439C227.85 291.065 227.629 290.391 227.629 289.416V284.775H226.167V283.568H227.629L227.816 281.545H229.057V283.568H231.539V284.775H229.057V289.416C229.057 289.949 229.165 290.311 229.38 290.504C229.596 290.685 229.975 290.776 230.519 290.776H231.403V292H230.111ZM237.453 292V283.568H238.745L238.847 284.792C239.119 284.339 239.481 283.987 239.935 283.738C240.388 283.489 240.898 283.364 241.465 283.364C242.133 283.364 242.706 283.5 243.182 283.772C243.669 284.044 244.043 284.458 244.304 285.013C244.598 284.503 245.001 284.101 245.511 283.806C246.032 283.511 246.593 283.364 247.194 283.364C248.202 283.364 249.007 283.67 249.608 284.282C250.208 284.883 250.509 285.812 250.509 287.07V292H249.098V287.223C249.098 286.35 248.922 285.693 248.571 285.251C248.219 284.809 247.715 284.588 247.058 284.588C246.378 284.588 245.811 284.854 245.358 285.387C244.916 285.908 244.695 286.656 244.695 287.631V292H243.267V287.223C243.267 286.35 243.091 285.693 242.74 285.251C242.388 284.809 241.884 284.588 241.227 284.588C240.558 284.588 239.997 284.854 239.544 285.387C239.102 285.908 238.881 286.656 238.881 287.631V292H237.453ZM255.265 292.204C254.562 292.204 253.978 292.085 253.514 291.847C253.049 291.609 252.703 291.292 252.477 290.895C252.25 290.498 252.137 290.068 252.137 289.603C252.137 288.742 252.465 288.079 253.123 287.614C253.78 287.149 254.675 286.917 255.809 286.917H258.087V286.815C258.087 286.078 257.894 285.523 257.509 285.149C257.123 284.764 256.608 284.571 255.962 284.571C255.406 284.571 254.925 284.713 254.517 284.996C254.12 285.268 253.871 285.67 253.769 286.203H252.307C252.363 285.591 252.567 285.075 252.919 284.656C253.281 284.237 253.729 283.919 254.262 283.704C254.794 283.477 255.361 283.364 255.962 283.364C257.14 283.364 258.024 283.681 258.614 284.316C259.214 284.939 259.515 285.772 259.515 286.815V292H258.24L258.155 290.487C257.917 290.963 257.565 291.371 257.101 291.711C256.647 292.04 256.035 292.204 255.265 292.204ZM255.486 290.997C256.03 290.997 256.494 290.855 256.88 290.572C257.276 290.289 257.577 289.92 257.781 289.467C257.985 289.014 258.087 288.538 258.087 288.039V288.022H255.928C255.089 288.022 254.494 288.169 254.143 288.464C253.803 288.747 253.633 289.104 253.633 289.535C253.633 289.977 253.791 290.334 254.109 290.606C254.437 290.867 254.896 290.997 255.486 290.997ZM262.324 281.698C262.041 281.698 261.803 281.607 261.61 281.426C261.429 281.233 261.338 280.995 261.338 280.712C261.338 280.44 261.429 280.213 261.61 280.032C261.803 279.851 262.041 279.76 262.324 279.76C262.596 279.76 262.828 279.851 263.021 280.032C263.214 280.213 263.31 280.44 263.31 280.712C263.31 280.995 263.214 281.233 263.021 281.426C262.828 281.607 262.596 281.698 262.324 281.698ZM261.61 292V283.568H263.038V292H261.61ZM265.324 292V283.568H266.616L266.701 285.081C266.973 284.548 267.364 284.129 267.874 283.823C268.384 283.517 268.962 283.364 269.608 283.364C270.606 283.364 271.399 283.67 271.988 284.282C272.589 284.883 272.889 285.812 272.889 287.07V292H271.461V287.223C271.461 285.466 270.736 284.588 269.285 284.588C268.56 284.588 267.954 284.854 267.466 285.387C266.99 285.908 266.752 286.656 266.752 287.631V292H265.324ZM278.185 292C277.414 292 276.808 291.813 276.366 291.439C275.924 291.065 275.703 290.391 275.703 289.416V284.775H274.241V283.568H275.703L275.89 281.545H277.131V283.568H279.613V284.775H277.131V289.416C277.131 289.949 277.238 290.311 277.454 290.504C277.669 290.685 278.049 290.776 278.593 290.776H279.477V292H278.185ZM284.032 292.204C283.329 292.204 282.746 292.085 282.281 291.847C281.816 291.609 281.471 291.292 281.244 290.895C281.017 290.498 280.904 290.068 280.904 289.603C280.904 288.742 281.233 288.079 281.89 287.614C282.547 287.149 283.443 286.917 284.576 286.917H286.854V286.815C286.854 286.078 286.661 285.523 286.276 285.149C285.891 284.764 285.375 284.571 284.729 284.571C284.174 284.571 283.692 284.713 283.284 284.996C282.887 285.268 282.638 285.67 282.536 286.203H281.074C281.131 285.591 281.335 285.075 281.686 284.656C282.049 284.237 282.496 283.919 283.029 283.704C283.562 283.477 284.128 283.364 284.729 283.364C285.908 283.364 286.792 283.681 287.381 284.316C287.982 284.939 288.282 285.772 288.282 286.815V292H287.007L286.922 290.487C286.684 290.963 286.333 291.371 285.868 291.711C285.415 292.04 284.803 292.204 284.032 292.204ZM284.253 290.997C284.797 290.997 285.262 290.855 285.647 290.572C286.044 290.289 286.344 289.92 286.548 289.467C286.752 289.014 286.854 288.538 286.854 288.039V288.022H284.695C283.856 288.022 283.261 288.169 282.91 288.464C282.57 288.747 282.4 289.104 282.4 289.535C282.4 289.977 282.559 290.334 282.876 290.606C283.205 290.867 283.664 290.997 284.253 290.997ZM291.091 281.698C290.808 281.698 290.57 281.607 290.377 281.426C290.196 281.233 290.105 280.995 290.105 280.712C290.105 280.44 290.196 280.213 290.377 280.032C290.57 279.851 290.808 279.76 291.091 279.76C291.363 279.76 291.596 279.851 291.788 280.032C291.981 280.213 292.077 280.44 292.077 280.712C292.077 280.995 291.981 281.233 291.788 281.426C291.596 281.607 291.363 281.698 291.091 281.698ZM290.377 292V283.568H291.805V292H290.377ZM294.092 292V283.568H295.384L295.469 285.081C295.741 284.548 296.132 284.129 296.642 283.823C297.152 283.517 297.73 283.364 298.376 283.364C299.373 283.364 300.166 283.67 300.756 284.282C301.356 284.883 301.657 285.812 301.657 287.07V292H300.229V287.223C300.229 285.466 299.503 284.588 298.053 284.588C297.327 284.588 296.721 284.854 296.234 285.387C295.758 285.908 295.52 286.656 295.52 287.631V292H294.092Z" fill="#0F2137"/>
<defs>
<filter id="filter0_d_1_2336" x="0" y="0" width="500" height="520" filterUnits="userSpaceOnUse" color-interpolation-filters="sRGB">
<feFlood flood-opacity="0" result="BackgroundImageFix"/>
<feColorMatrix in="SourceAlpha" type="matrix" values="0 0 0 0 0 0 0 0 0 0 0 0 0 0 0 0 0 0 127 0" result="hardAlpha"/>
<feOffset dy="25"/>
<feGaussianBlur stdDeviation="50"/>
<feColorMatrix type="matrix" values="0 0 0 0 0.269792 0 0 0 0 0.346104 0 0 0 0 0.616667 0 0 0 0.08 0"/>
<feBlend mode="normal" in2="BackgroundImageFix" result="effect1_dropShadow_1_2336"/>
<feBlend mode="normal" in="SourceGraphic" in2="effect1_dropShadow_1_2336" result="shape"/>
</filter>
</defs>
</svg>
