<svg width="500" height="520" viewBox="0 0 500 520" fill="none" xmlns="http://www.w3.org/2000/svg">
<g filter="url(#filter0_d_1_2332)">
<rect x="100" y="75" width="300" height="320" rx="10" fill="white"/>
</g>
<path d="M184.161 225.792C180.465 225.792 177.249 225.168 174.513 223.92C171.777 222.624 169.641 220.824 168.105 218.52C166.617 216.216 165.873 213.528 165.873 210.456C165.873 207.192 166.785 204.24 168.609 201.6C170.433 198.96 173.145 196.848 176.745 195.264C175.305 193.584 174.273 192 173.649 190.512C173.025 189.024 172.713 187.44 172.713 185.76C172.713 183.456 173.289 181.416 174.441 179.64C175.593 177.816 177.225 176.376 179.337 175.32C181.497 174.264 184.065 173.736 187.041 173.736C190.065 173.736 192.633 174.288 194.745 175.392C196.857 176.496 198.441 177.984 199.497 179.856C200.601 181.728 201.105 183.816 201.009 186.12H192.225C192.225 184.344 191.697 183.024 190.641 182.16C189.633 181.248 188.409 180.792 186.969 180.792C185.337 180.792 184.017 181.248 183.009 182.16C182.049 183.072 181.569 184.248 181.569 185.688C181.569 186.888 181.953 188.112 182.721 189.36C183.489 190.608 184.617 192.048 186.105 193.68L200.217 207.648C201.225 206.016 202.281 204.12 203.385 201.96L204.969 198.792H214.401L211.881 203.688C209.961 207.576 208.041 210.864 206.121 213.552L217.713 225H206.697L201.081 219.384C198.633 221.64 196.017 223.272 193.233 224.28C190.497 225.288 187.473 225.792 184.161 225.792ZM174.801 209.88C174.801 212.232 175.665 214.224 177.393 215.856C179.169 217.44 181.521 218.232 184.449 218.232C188.625 218.232 192.249 216.744 195.321 213.768L182.001 200.592C179.553 201.648 177.729 202.968 176.529 204.552C175.377 206.136 174.801 207.912 174.801 209.88ZM254.294 225.864C250.982 225.864 247.982 225.288 245.294 224.136C242.606 222.936 240.446 221.112 238.814 218.664C237.182 216.216 236.318 213.144 236.222 209.448H245.294C245.342 211.896 246.134 213.96 247.67 215.64C249.254 217.272 251.462 218.088 254.294 218.088C256.982 218.088 259.046 217.344 260.486 215.856C261.926 214.368 262.646 212.496 262.646 210.24C262.646 207.6 261.686 205.608 259.766 204.264C257.894 202.872 255.47 202.176 252.494 202.176H248.75V194.616H252.566C255.014 194.616 257.054 194.04 258.686 192.888C260.318 191.736 261.134 190.032 261.134 187.776C261.134 185.904 260.51 184.416 259.262 183.312C258.062 182.16 256.382 181.584 254.222 181.584C251.87 181.584 250.022 182.28 248.678 183.672C247.382 185.064 246.662 186.768 246.518 188.784H237.518C237.71 184.128 239.318 180.456 242.342 177.768C245.414 175.08 249.374 173.736 254.222 173.736C257.678 173.736 260.582 174.36 262.934 175.608C265.334 176.808 267.134 178.416 268.334 180.432C269.582 182.448 270.206 184.68 270.206 187.128C270.206 189.96 269.414 192.36 267.83 194.328C266.294 196.248 264.374 197.544 262.07 198.216C264.902 198.792 267.206 200.184 268.982 202.392C270.758 204.552 271.646 207.288 271.646 210.6C271.646 213.384 270.974 215.928 269.63 218.232C268.286 220.536 266.318 222.384 263.726 223.776C261.182 225.168 258.038 225.864 254.294 225.864ZM279.197 225V174.6H290.141L306.197 206.568L322.037 174.6H332.981V225H323.765V190.224L309.725 217.8H302.453L288.413 190.224V225H279.197Z" fill="#28DCB2"/>
<path opacity="0.7" d="M169.349 266.204C168.273 266.204 167.428 265.904 166.816 265.303C166.204 264.702 165.898 263.869 165.898 262.804H167.343C167.343 263.405 167.491 263.909 167.785 264.317C168.08 264.725 168.596 264.929 169.332 264.929C170.046 264.929 170.539 264.731 170.811 264.334C171.095 263.937 171.236 263.444 171.236 262.855V254.1H172.664V262.855C172.664 263.909 172.37 264.731 171.78 265.32C171.202 265.909 170.392 266.204 169.349 266.204ZM178.738 266.204C177.945 266.204 177.231 266.023 176.596 265.66C175.961 265.297 175.457 264.787 175.083 264.13C174.72 263.461 174.539 262.679 174.539 261.784C174.539 260.889 174.726 260.112 175.1 259.455C175.474 258.786 175.978 258.271 176.613 257.908C177.259 257.545 177.979 257.364 178.772 257.364C179.565 257.364 180.279 257.545 180.914 257.908C181.549 258.271 182.047 258.786 182.41 259.455C182.784 260.112 182.971 260.889 182.971 261.784C182.971 262.679 182.784 263.461 182.41 264.13C182.036 264.787 181.526 265.297 180.88 265.66C180.245 266.023 179.531 266.204 178.738 266.204ZM178.738 264.98C179.225 264.98 179.679 264.861 180.098 264.623C180.517 264.385 180.857 264.028 181.118 263.552C181.379 263.076 181.509 262.487 181.509 261.784C181.509 261.081 181.379 260.492 181.118 260.016C180.869 259.54 180.534 259.183 180.115 258.945C179.696 258.707 179.248 258.588 178.772 258.588C178.285 258.588 177.831 258.707 177.412 258.945C176.993 259.183 176.653 259.54 176.392 260.016C176.131 260.492 176.001 261.081 176.001 261.784C176.001 262.487 176.131 263.076 176.392 263.552C176.653 264.028 176.987 264.385 177.395 264.623C177.814 264.861 178.262 264.98 178.738 264.98ZM189.261 266.204C188.57 266.204 187.952 266.062 187.408 265.779C186.876 265.496 186.468 265.099 186.184 264.589L186.048 266H184.756V253.76H186.184V258.962C186.456 258.554 186.842 258.186 187.34 257.857C187.85 257.528 188.496 257.364 189.278 257.364C190.117 257.364 190.848 257.557 191.471 257.942C192.095 258.327 192.576 258.854 192.916 259.523C193.268 260.192 193.443 260.951 193.443 261.801C193.443 262.651 193.268 263.41 192.916 264.079C192.576 264.736 192.089 265.258 191.454 265.643C190.831 266.017 190.1 266.204 189.261 266.204ZM189.108 264.963C189.675 264.963 190.174 264.833 190.604 264.572C191.035 264.3 191.375 263.926 191.624 263.45C191.874 262.974 191.998 262.419 191.998 261.784C191.998 261.149 191.874 260.594 191.624 260.118C191.375 259.642 191.035 259.274 190.604 259.013C190.174 258.741 189.675 258.605 189.108 258.605C188.542 258.605 188.043 258.741 187.612 259.013C187.182 259.274 186.842 259.642 186.592 260.118C186.343 260.594 186.218 261.149 186.218 261.784C186.218 262.419 186.343 262.974 186.592 263.45C186.842 263.926 187.182 264.3 187.612 264.572C188.043 264.833 188.542 264.963 189.108 264.963ZM199.53 269.74V257.568H200.822L200.958 258.962C201.23 258.554 201.616 258.186 202.114 257.857C202.624 257.528 203.27 257.364 204.052 257.364C204.891 257.364 205.622 257.557 206.245 257.942C206.869 258.327 207.35 258.854 207.69 259.523C208.042 260.192 208.217 260.951 208.217 261.801C208.217 262.651 208.042 263.41 207.69 264.079C207.35 264.736 206.863 265.258 206.228 265.643C205.605 266.017 204.874 266.204 204.035 266.204C203.344 266.204 202.726 266.062 202.182 265.779C201.65 265.496 201.242 265.099 200.958 264.589V269.74H199.53ZM203.882 264.963C204.449 264.963 204.948 264.833 205.378 264.572C205.809 264.3 206.149 263.926 206.398 263.45C206.648 262.974 206.772 262.419 206.772 261.784C206.772 261.149 206.648 260.594 206.398 260.118C206.149 259.642 205.809 259.274 205.378 259.013C204.948 258.741 204.449 258.605 203.882 258.605C203.316 258.605 202.817 258.741 202.386 259.013C201.956 259.274 201.616 259.642 201.366 260.118C201.117 260.594 200.992 261.149 200.992 261.784C200.992 262.419 201.117 262.974 201.366 263.45C201.616 263.926 201.956 264.3 202.386 264.572C202.817 264.833 203.316 264.963 203.882 264.963ZM213.847 266.204C213.054 266.204 212.34 266.023 211.705 265.66C211.07 265.297 210.566 264.787 210.192 264.13C209.829 263.461 209.648 262.679 209.648 261.784C209.648 260.889 209.835 260.112 210.209 259.455C210.583 258.786 211.087 258.271 211.722 257.908C212.368 257.545 213.088 257.364 213.881 257.364C214.674 257.364 215.388 257.545 216.023 257.908C216.658 258.271 217.156 258.786 217.519 259.455C217.893 260.112 218.08 260.889 218.08 261.784C218.08 262.679 217.893 263.461 217.519 264.13C217.145 264.787 216.635 265.297 215.989 265.66C215.354 266.023 214.64 266.204 213.847 266.204ZM213.847 264.98C214.334 264.98 214.788 264.861 215.207 264.623C215.626 264.385 215.966 264.028 216.227 263.552C216.488 263.076 216.618 262.487 216.618 261.784C216.618 261.081 216.488 260.492 216.227 260.016C215.978 259.54 215.643 259.183 215.224 258.945C214.805 258.707 214.357 258.588 213.881 258.588C213.394 258.588 212.94 258.707 212.521 258.945C212.102 259.183 211.762 259.54 211.501 260.016C211.24 260.492 211.11 261.081 211.11 261.784C211.11 262.487 211.24 263.076 211.501 263.552C211.762 264.028 212.096 264.385 212.504 264.623C212.923 264.861 213.371 264.98 213.847 264.98ZM223.096 266.204C222.087 266.204 221.248 265.949 220.58 265.439C219.911 264.929 219.52 264.238 219.407 263.365H220.869C220.959 263.807 221.192 264.192 221.566 264.521C221.951 264.838 222.467 264.997 223.113 264.997C223.713 264.997 224.155 264.872 224.439 264.623C224.722 264.362 224.864 264.056 224.864 263.705C224.864 263.195 224.677 262.855 224.303 262.685C223.94 262.515 223.424 262.362 222.756 262.226C222.302 262.135 221.849 262.005 221.396 261.835C220.942 261.665 220.563 261.427 220.257 261.121C219.951 260.804 219.798 260.39 219.798 259.88C219.798 259.143 220.07 258.543 220.614 258.078C221.169 257.602 221.917 257.364 222.858 257.364C223.753 257.364 224.484 257.591 225.051 258.044C225.629 258.486 225.963 259.121 226.054 259.948H224.643C224.586 259.517 224.399 259.183 224.082 258.945C223.776 258.696 223.362 258.571 222.841 258.571C222.331 258.571 221.934 258.679 221.651 258.894C221.379 259.109 221.243 259.393 221.243 259.744C221.243 260.084 221.418 260.35 221.77 260.543C222.132 260.736 222.62 260.9 223.232 261.036C223.753 261.149 224.246 261.291 224.711 261.461C225.187 261.62 225.572 261.863 225.867 262.192C226.173 262.509 226.326 262.974 226.326 263.586C226.337 264.345 226.048 264.974 225.459 265.473C224.881 265.96 224.093 266.204 223.096 266.204ZM231.116 266C230.345 266 229.739 265.813 229.297 265.439C228.855 265.065 228.634 264.391 228.634 263.416V258.775H227.172V257.568H228.634L228.821 255.545H230.062V257.568H232.544V258.775H230.062V263.416C230.062 263.949 230.169 264.311 230.385 264.504C230.6 264.685 230.98 264.776 231.524 264.776H232.408V266H231.116ZM237.717 266.204C236.912 266.204 236.198 266.023 235.575 265.66C234.951 265.286 234.458 264.77 234.096 264.113C233.744 263.456 233.569 262.679 233.569 261.784C233.569 260.9 233.744 260.129 234.096 259.472C234.447 258.803 234.934 258.288 235.558 257.925C236.192 257.551 236.923 257.364 237.751 257.364C238.567 257.364 239.269 257.551 239.859 257.925C240.459 258.288 240.918 258.769 241.236 259.37C241.553 259.971 241.712 260.617 241.712 261.308C241.712 261.433 241.706 261.557 241.695 261.682C241.695 261.807 241.695 261.948 241.695 262.107H234.98C235.014 262.753 235.161 263.291 235.422 263.722C235.694 264.141 236.028 264.459 236.425 264.674C236.833 264.889 237.263 264.997 237.717 264.997C238.306 264.997 238.799 264.861 239.196 264.589C239.592 264.317 239.881 263.949 240.063 263.484H241.474C241.247 264.266 240.811 264.918 240.165 265.439C239.53 265.949 238.714 266.204 237.717 266.204ZM237.717 258.571C237.037 258.571 236.43 258.781 235.898 259.2C235.376 259.608 235.076 260.209 234.997 261.002H240.301C240.267 260.243 240.006 259.648 239.519 259.217C239.031 258.786 238.431 258.571 237.717 258.571ZM247.229 266.204C246.391 266.204 245.654 266.011 245.019 265.626C244.396 265.241 243.909 264.714 243.557 264.045C243.217 263.376 243.047 262.617 243.047 261.767C243.047 260.917 243.223 260.163 243.574 259.506C243.926 258.837 244.413 258.316 245.036 257.942C245.66 257.557 246.396 257.364 247.246 257.364C247.938 257.364 248.55 257.506 249.082 257.789C249.615 258.072 250.029 258.469 250.323 258.979V253.76H251.751V266H250.459L250.323 264.606C250.051 265.014 249.66 265.382 249.15 265.711C248.64 266.04 248 266.204 247.229 266.204ZM247.382 264.963C247.949 264.963 248.448 264.833 248.878 264.572C249.32 264.3 249.66 263.926 249.898 263.45C250.148 262.974 250.272 262.419 250.272 261.784C250.272 261.149 250.148 260.594 249.898 260.118C249.66 259.642 249.32 259.274 248.878 259.013C248.448 258.741 247.949 258.605 247.382 258.605C246.827 258.605 246.328 258.741 245.886 259.013C245.456 259.274 245.116 259.642 244.866 260.118C244.628 260.594 244.509 261.149 244.509 261.784C244.509 262.419 244.628 262.974 244.866 263.45C245.116 263.926 245.456 264.3 245.886 264.572C246.328 264.833 246.827 264.963 247.382 264.963ZM261.969 266.204C261.164 266.204 260.45 266.023 259.827 265.66C259.204 265.286 258.711 264.77 258.348 264.113C257.997 263.456 257.821 262.679 257.821 261.784C257.821 260.9 257.997 260.129 258.348 259.472C258.699 258.803 259.187 258.288 259.81 257.925C260.445 257.551 261.176 257.364 262.003 257.364C262.819 257.364 263.522 257.551 264.111 257.925C264.712 258.288 265.171 258.769 265.488 259.37C265.805 259.971 265.964 260.617 265.964 261.308C265.964 261.433 265.958 261.557 265.947 261.682C265.947 261.807 265.947 261.948 265.947 262.107H259.232C259.266 262.753 259.413 263.291 259.674 263.722C259.946 264.141 260.28 264.459 260.677 264.674C261.085 264.889 261.516 264.997 261.969 264.997C262.558 264.997 263.051 264.861 263.448 264.589C263.845 264.317 264.134 263.949 264.315 263.484H265.726C265.499 264.266 265.063 264.918 264.417 265.439C263.782 265.949 262.966 266.204 261.969 266.204ZM261.969 258.571C261.289 258.571 260.683 258.781 260.15 259.2C259.629 259.608 259.328 260.209 259.249 261.002H264.553C264.519 260.243 264.258 259.648 263.771 259.217C263.284 258.786 262.683 258.571 261.969 258.571ZM269.756 266L266.56 257.568H268.056L270.589 264.623L273.139 257.568H274.601L271.405 266H269.756ZM279.349 266.204C278.545 266.204 277.831 266.023 277.207 265.66C276.584 265.286 276.091 264.77 275.728 264.113C275.377 263.456 275.201 262.679 275.201 261.784C275.201 260.9 275.377 260.129 275.728 259.472C276.08 258.803 276.567 258.288 277.19 257.925C277.825 257.551 278.556 257.364 279.383 257.364C280.199 257.364 280.902 257.551 281.491 257.925C282.092 258.288 282.551 258.769 282.868 259.37C283.186 259.971 283.344 260.617 283.344 261.308C283.344 261.433 283.339 261.557 283.327 261.682C283.327 261.807 283.327 261.948 283.327 262.107H276.612C276.646 262.753 276.794 263.291 277.054 263.722C277.326 264.141 277.661 264.459 278.057 264.674C278.465 264.889 278.896 264.997 279.349 264.997C279.939 264.997 280.432 264.861 280.828 264.589C281.225 264.317 281.514 263.949 281.695 263.484H283.106C282.88 264.266 282.443 264.918 281.797 265.439C281.163 265.949 280.347 266.204 279.349 266.204ZM279.349 258.571C278.669 258.571 278.063 258.781 277.53 259.2C277.009 259.608 276.709 260.209 276.629 261.002H281.933C281.899 260.243 281.639 259.648 281.151 259.217C280.664 258.786 280.063 258.571 279.349 258.571ZM285.037 266V257.568H286.329L286.448 259.183C286.709 258.628 287.105 258.186 287.638 257.857C288.171 257.528 288.828 257.364 289.61 257.364V258.86H289.219C288.72 258.86 288.261 258.951 287.842 259.132C287.423 259.302 287.088 259.597 286.839 260.016C286.59 260.435 286.465 261.013 286.465 261.75V266H285.037ZM291.931 269.74L294.022 265.184H293.529L290.18 257.568H291.727L294.515 264.13L297.473 257.568H298.952L293.427 269.74H291.931ZM303.287 266.204C302.449 266.204 301.712 266.011 301.077 265.626C300.454 265.241 299.967 264.714 299.615 264.045C299.275 263.376 299.105 262.617 299.105 261.767C299.105 260.917 299.281 260.163 299.632 259.506C299.984 258.837 300.471 258.316 301.094 257.942C301.718 257.557 302.454 257.364 303.304 257.364C303.996 257.364 304.608 257.506 305.14 257.789C305.673 258.072 306.087 258.469 306.381 258.979V253.76H307.809V266H306.517L306.381 264.606C306.109 265.014 305.718 265.382 305.208 265.711C304.698 266.04 304.058 266.204 303.287 266.204ZM303.44 264.963C304.007 264.963 304.506 264.833 304.936 264.572C305.378 264.3 305.718 263.926 305.956 263.45C306.206 262.974 306.33 262.419 306.33 261.784C306.33 261.149 306.206 260.594 305.956 260.118C305.718 259.642 305.378 259.274 304.936 259.013C304.506 258.741 304.007 258.605 303.44 258.605C302.885 258.605 302.386 258.741 301.944 259.013C301.514 259.274 301.174 259.642 300.924 260.118C300.686 260.594 300.567 261.149 300.567 261.784C300.567 262.419 300.686 262.974 300.924 263.45C301.174 263.926 301.514 264.3 301.944 264.572C302.386 264.833 302.885 264.963 303.44 264.963ZM312.742 266.204C312.039 266.204 311.456 266.085 310.991 265.847C310.526 265.609 310.181 265.292 309.954 264.895C309.727 264.498 309.614 264.068 309.614 263.603C309.614 262.742 309.943 262.079 310.6 261.614C311.257 261.149 312.153 260.917 313.286 260.917H315.564V260.815C315.564 260.078 315.371 259.523 314.986 259.149C314.601 258.764 314.085 258.571 313.439 258.571C312.884 258.571 312.402 258.713 311.994 258.996C311.597 259.268 311.348 259.67 311.246 260.203H309.784C309.841 259.591 310.045 259.075 310.396 258.656C310.759 258.237 311.206 257.919 311.739 257.704C312.272 257.477 312.838 257.364 313.439 257.364C314.618 257.364 315.502 257.681 316.091 258.316C316.692 258.939 316.992 259.772 316.992 260.815V266H315.717L315.632 264.487C315.394 264.963 315.043 265.371 314.578 265.711C314.125 266.04 313.513 266.204 312.742 266.204ZM312.963 264.997C313.507 264.997 313.972 264.855 314.357 264.572C314.754 264.289 315.054 263.92 315.258 263.467C315.462 263.014 315.564 262.538 315.564 262.039V262.022H313.405C312.566 262.022 311.971 262.169 311.62 262.464C311.28 262.747 311.11 263.104 311.11 263.535C311.11 263.977 311.269 264.334 311.586 264.606C311.915 264.867 312.374 264.997 312.963 264.997ZM319.603 269.74L321.694 265.184H321.201L317.852 257.568H319.399L322.187 264.13L325.145 257.568H326.624L321.099 269.74H319.603ZM330.664 266.204C329.655 266.204 328.816 265.949 328.148 265.439C327.479 264.929 327.088 264.238 326.975 263.365H328.437C328.527 263.807 328.76 264.192 329.134 264.521C329.519 264.838 330.035 264.997 330.681 264.997C331.281 264.997 331.723 264.872 332.007 264.623C332.29 264.362 332.432 264.056 332.432 263.705C332.432 263.195 332.245 262.855 331.871 262.685C331.508 262.515 330.992 262.362 330.324 262.226C329.87 262.135 329.417 262.005 328.964 261.835C328.51 261.665 328.131 261.427 327.825 261.121C327.519 260.804 327.366 260.39 327.366 259.88C327.366 259.143 327.638 258.543 328.182 258.078C328.737 257.602 329.485 257.364 330.426 257.364C331.321 257.364 332.052 257.591 332.619 258.044C333.197 258.486 333.531 259.121 333.622 259.948H332.211C332.154 259.517 331.967 259.183 331.65 258.945C331.344 258.696 330.93 258.571 330.409 258.571C329.899 258.571 329.502 258.679 329.219 258.894C328.947 259.109 328.811 259.393 328.811 259.744C328.811 260.084 328.986 260.35 329.338 260.543C329.7 260.736 330.188 260.9 330.8 261.036C331.321 261.149 331.814 261.291 332.279 261.461C332.755 261.62 333.14 261.863 333.435 262.192C333.741 262.509 333.894 262.974 333.894 263.586C333.905 264.345 333.616 264.974 333.027 265.473C332.449 265.96 331.661 266.204 330.664 266.204ZM185.394 291L182.929 282.568H184.357L186.142 289.181L188.114 282.568H189.729L191.718 289.181L193.486 282.568H194.931L192.466 291H191.004L188.93 284.047L186.856 291H185.394ZM197.178 280.698C196.894 280.698 196.656 280.607 196.464 280.426C196.282 280.233 196.192 279.995 196.192 279.712C196.192 279.44 196.282 279.213 196.464 279.032C196.656 278.851 196.894 278.76 197.178 278.76C197.45 278.76 197.682 278.851 197.875 279.032C198.067 279.213 198.164 279.44 198.164 279.712C198.164 279.995 198.067 280.233 197.875 280.426C197.682 280.607 197.45 280.698 197.178 280.698ZM196.464 291V282.568H197.892V291H196.464ZM203.51 291C202.739 291 202.133 290.813 201.691 290.439C201.249 290.065 201.028 289.391 201.028 288.416V283.775H199.566V282.568H201.028L201.215 280.545H202.456V282.568H204.938V283.775H202.456V288.416C202.456 288.949 202.564 289.311 202.779 289.504C202.994 289.685 203.374 289.776 203.918 289.776H204.802V291H203.51ZM206.552 291V278.76H207.98V284.013C208.264 283.492 208.666 283.089 209.187 282.806C209.709 282.511 210.275 282.364 210.887 282.364C211.862 282.364 212.644 282.67 213.233 283.282C213.823 283.883 214.117 284.812 214.117 286.07V291H212.706V286.223C212.706 284.466 211.998 283.588 210.581 283.588C209.845 283.588 209.227 283.854 208.728 284.387C208.23 284.908 207.98 285.656 207.98 286.631V291H206.552ZM231.598 294.74V289.606C231.326 290.014 230.935 290.382 230.425 290.711C229.915 291.04 229.275 291.204 228.504 291.204C227.665 291.204 226.929 291.011 226.294 290.626C225.671 290.241 225.183 289.714 224.832 289.045C224.492 288.376 224.322 287.617 224.322 286.767C224.322 285.917 224.498 285.163 224.849 284.506C225.2 283.837 225.688 283.316 226.311 282.942C226.934 282.557 227.671 282.364 228.521 282.364C229.212 282.364 229.824 282.506 230.357 282.789C230.89 283.072 231.303 283.469 231.598 283.979L231.734 282.568H233.026V294.74H231.598ZM228.657 289.963C229.224 289.963 229.722 289.833 230.153 289.572C230.595 289.3 230.935 288.926 231.173 288.45C231.422 287.974 231.547 287.419 231.547 286.784C231.547 286.149 231.422 285.594 231.173 285.118C230.935 284.642 230.595 284.274 230.153 284.013C229.722 283.741 229.224 283.605 228.657 283.605C228.102 283.605 227.603 283.741 227.161 284.013C226.73 284.274 226.39 284.642 226.141 285.118C225.903 285.594 225.784 286.149 225.784 286.784C225.784 287.419 225.903 287.974 226.141 288.45C226.39 288.926 226.73 289.3 227.161 289.572C227.603 289.833 228.102 289.963 228.657 289.963ZM242.532 282.568V291H241.24L241.155 289.487C240.883 290.02 240.492 290.439 239.982 290.745C239.472 291.051 238.894 291.204 238.248 291.204C237.25 291.204 236.451 290.904 235.851 290.303C235.261 289.691 234.967 288.756 234.967 287.498V282.568H236.395V287.345C236.395 289.102 237.12 289.98 238.571 289.98C239.296 289.98 239.897 289.719 240.373 289.198C240.86 288.665 241.104 287.912 241.104 286.937V282.568H242.532ZM247.487 291.204C246.785 291.204 246.201 291.085 245.736 290.847C245.272 290.609 244.926 290.292 244.699 289.895C244.473 289.498 244.359 289.068 244.359 288.603C244.359 287.742 244.688 287.079 245.345 286.614C246.003 286.149 246.898 285.917 248.031 285.917H250.309V285.815C250.309 285.078 250.117 284.523 249.731 284.149C249.346 283.764 248.83 283.571 248.184 283.571C247.629 283.571 247.147 283.713 246.739 283.996C246.343 284.268 246.093 284.67 245.991 285.203H244.529C244.586 284.591 244.79 284.075 245.141 283.656C245.504 283.237 245.952 282.919 246.484 282.704C247.017 282.477 247.584 282.364 248.184 282.364C249.363 282.364 250.247 282.681 250.836 283.316C251.437 283.939 251.737 284.772 251.737 285.815V291H250.462L250.377 289.487C250.139 289.963 249.788 290.371 249.323 290.711C248.87 291.04 248.258 291.204 247.487 291.204ZM247.708 289.997C248.252 289.997 248.717 289.855 249.102 289.572C249.499 289.289 249.799 288.92 250.003 288.467C250.207 288.014 250.309 287.538 250.309 287.039V287.022H248.15C247.312 287.022 246.717 287.169 246.365 287.464C246.025 287.747 245.855 288.104 245.855 288.535C245.855 288.977 246.014 289.334 246.331 289.606C246.66 289.867 247.119 289.997 247.708 289.997ZM253.679 291V278.76H255.107V291H253.679ZM258.115 280.698C257.832 280.698 257.594 280.607 257.401 280.426C257.22 280.233 257.129 279.995 257.129 279.712C257.129 279.44 257.22 279.213 257.401 279.032C257.594 278.851 257.832 278.76 258.115 278.76C258.387 278.76 258.619 278.851 258.812 279.032C259.005 279.213 259.101 279.44 259.101 279.712C259.101 279.995 259.005 280.233 258.812 280.426C258.619 280.607 258.387 280.698 258.115 280.698ZM257.401 291V282.568H258.829V291H257.401ZM261.574 291V283.775H260.299V282.568H261.574V281.106C261.574 280.29 261.778 279.695 262.186 279.321C262.594 278.947 263.189 278.76 263.971 278.76H264.821V279.984H264.192C263.762 279.984 263.456 280.075 263.274 280.256C263.093 280.426 263.002 280.721 263.002 281.14V282.568H268.238V291H266.81V283.775H263.002V291H261.574ZM267.541 280.953C267.269 280.953 267.037 280.862 266.844 280.681C266.652 280.488 266.555 280.25 266.555 279.967C266.555 279.695 266.652 279.468 266.844 279.287C267.037 279.106 267.269 279.015 267.541 279.015C267.825 279.015 268.057 279.106 268.238 279.287C268.431 279.468 268.527 279.695 268.527 279.967C268.527 280.25 268.431 280.488 268.238 280.681C268.057 280.862 267.825 280.953 267.541 280.953ZM274.437 291.204C273.632 291.204 272.907 291.023 272.261 290.66C271.626 290.286 271.122 289.77 270.748 289.113C270.385 288.444 270.204 287.668 270.204 286.784C270.204 285.9 270.385 285.129 270.748 284.472C271.122 283.803 271.626 283.288 272.261 282.925C272.907 282.551 273.632 282.364 274.437 282.364C275.434 282.364 276.273 282.625 276.953 283.146C277.644 283.667 278.081 284.364 278.262 285.237H276.8C276.687 284.716 276.409 284.313 275.967 284.03C275.525 283.735 275.009 283.588 274.42 283.588C273.944 283.588 273.496 283.707 273.077 283.945C272.658 284.183 272.318 284.54 272.057 285.016C271.796 285.492 271.666 286.081 271.666 286.784C271.666 287.487 271.796 288.076 272.057 288.552C272.318 289.028 272.658 289.391 273.077 289.64C273.496 289.878 273.944 289.997 274.42 289.997C275.009 289.997 275.525 289.855 275.967 289.572C276.409 289.277 276.687 288.864 276.8 288.331H278.262C278.092 289.181 277.661 289.872 276.97 290.405C276.279 290.938 275.434 291.204 274.437 291.204ZM282.861 291.204C282.159 291.204 281.575 291.085 281.11 290.847C280.646 290.609 280.3 290.292 280.073 289.895C279.847 289.498 279.733 289.068 279.733 288.603C279.733 287.742 280.062 287.079 280.719 286.614C281.377 286.149 282.272 285.917 283.405 285.917H285.683V285.815C285.683 285.078 285.491 284.523 285.105 284.149C284.72 283.764 284.204 283.571 283.558 283.571C283.003 283.571 282.521 283.713 282.113 283.996C281.717 284.268 281.467 284.67 281.365 285.203H279.903C279.96 284.591 280.164 284.075 280.515 283.656C280.878 283.237 281.326 282.919 281.858 282.704C282.391 282.477 282.958 282.364 283.558 282.364C284.737 282.364 285.621 282.681 286.21 283.316C286.811 283.939 287.111 284.772 287.111 285.815V291H285.836L285.751 289.487C285.513 289.963 285.162 290.371 284.697 290.711C284.244 291.04 283.632 291.204 282.861 291.204ZM283.082 289.997C283.626 289.997 284.091 289.855 284.476 289.572C284.873 289.289 285.173 288.92 285.377 288.467C285.581 288.014 285.683 287.538 285.683 287.039V287.022H283.524C282.686 287.022 282.091 287.169 281.739 287.464C281.399 287.747 281.229 288.104 281.229 288.535C281.229 288.977 281.388 289.334 281.705 289.606C282.034 289.867 282.493 289.997 283.082 289.997ZM292.153 291C291.382 291 290.776 290.813 290.334 290.439C289.892 290.065 289.671 289.391 289.671 288.416V283.775H288.209V282.568H289.671L289.858 280.545H291.099V282.568H293.581V283.775H291.099V288.416C291.099 288.949 291.207 289.311 291.422 289.504C291.637 289.685 292.017 289.776 292.561 289.776H293.445V291H292.153ZM296.062 280.698C295.779 280.698 295.541 280.607 295.348 280.426C295.167 280.233 295.076 279.995 295.076 279.712C295.076 279.44 295.167 279.213 295.348 279.032C295.541 278.851 295.779 278.76 296.062 278.76C296.334 278.76 296.567 278.851 296.759 279.032C296.952 279.213 297.048 279.44 297.048 279.712C297.048 279.995 296.952 280.233 296.759 280.426C296.567 280.607 296.334 280.698 296.062 280.698ZM295.348 291V282.568H296.776V291H295.348ZM302.905 291.204C302.111 291.204 301.397 291.023 300.763 290.66C300.128 290.297 299.624 289.787 299.25 289.13C298.887 288.461 298.706 287.679 298.706 286.784C298.706 285.889 298.893 285.112 299.267 284.455C299.641 283.786 300.145 283.271 300.78 282.908C301.426 282.545 302.145 282.364 302.939 282.364C303.732 282.364 304.446 282.545 305.081 282.908C305.715 283.271 306.214 283.786 306.577 284.455C306.951 285.112 307.138 285.889 307.138 286.784C307.138 287.679 306.951 288.461 306.577 289.13C306.203 289.787 305.693 290.297 305.047 290.66C304.412 291.023 303.698 291.204 302.905 291.204ZM302.905 289.98C303.392 289.98 303.845 289.861 304.265 289.623C304.684 289.385 305.024 289.028 305.285 288.552C305.545 288.076 305.676 287.487 305.676 286.784C305.676 286.081 305.545 285.492 305.285 285.016C305.035 284.54 304.701 284.183 304.282 283.945C303.862 283.707 303.415 283.588 302.939 283.588C302.451 283.588 301.998 283.707 301.579 283.945C301.159 284.183 300.819 284.54 300.559 285.016C300.298 285.492 300.168 286.081 300.168 286.784C300.168 287.487 300.298 288.076 300.559 288.552C300.819 289.028 301.154 289.385 301.562 289.623C301.981 289.861 302.429 289.98 302.905 289.98ZM308.923 291V282.568H310.215L310.3 284.081C310.572 283.548 310.963 283.129 311.473 282.823C311.983 282.517 312.561 282.364 313.207 282.364C314.205 282.364 314.998 282.67 315.587 283.282C316.188 283.883 316.488 284.812 316.488 286.07V291H315.06V286.223C315.06 284.466 314.335 283.588 312.884 283.588C312.159 283.588 311.553 283.854 311.065 284.387C310.589 284.908 310.351 285.656 310.351 286.631V291H308.923Z" fill="#0F2137"/>
<defs>
<filter id="filter0_d_1_2332" x="0" y="0" width="500" height="520" filterUnits="userSpaceOnUse" color-interpolation-filters="sRGB">
<feFlood flood-opacity="0" result="BackgroundImageFix"/>
<feColorMatrix in="SourceAlpha" type="matrix" values="0 0 0 0 0 0 0 0 0 0 0 0 0 0 0 0 0 0 127 0" result="hardAlpha"/>
<feOffset dy="25"/>
<feGaussianBlur stdDeviation="50"/>
<feColorMatrix type="matrix" values="0 0 0 0 0.269792 0 0 0 0 0.346104 0 0 0 0 0.616667 0 0 0 0.08 0"/>
<feBlend mode="normal" in2="BackgroundImageFix" result="effect1_dropShadow_1_2332"/>
<feBlend mode="normal" in="SourceGraphic" in2="effect1_dropShadow_1_2332" result="shape"/>
</filter>
</defs>
</svg>
