<svg width="500" height="520" viewBox="0 0 500 520" fill="none" xmlns="http://www.w3.org/2000/svg">
<g filter="url(#filter0_d_1_2340)">
<rect x="100" y="75" width="300" height="320" rx="10" fill="white"/>
</g>
<path d="M180.845 225V185.112L172.565 187.056V180L184.733 174.6H190.421V225H180.845ZM216.765 225.864C213.069 225.864 209.877 225.216 207.189 223.92C204.549 222.624 202.461 220.848 200.925 218.592C199.437 216.288 198.573 213.696 198.333 210.816H207.333C207.765 212.88 208.821 214.608 210.501 216C212.181 217.344 214.269 218.016 216.765 218.016C219.453 218.016 221.637 217.032 223.317 215.064C225.045 213.096 225.909 210.648 225.909 207.72C225.909 204.696 225.045 202.296 223.317 200.52C221.637 198.744 219.501 197.856 216.909 197.856C214.749 197.856 212.877 198.384 211.293 199.44C209.709 200.496 208.581 201.816 207.909 203.4H199.053L203.373 174.6H231.309V182.664H210.285L207.981 194.328C209.037 193.176 210.477 192.24 212.301 191.52C214.125 190.752 216.165 190.368 218.421 190.368C222.021 190.368 225.021 191.184 227.421 192.816C229.821 194.4 231.645 196.512 232.893 199.152C234.141 201.744 234.765 204.576 234.765 207.648C234.765 211.152 233.997 214.272 232.461 217.008C230.973 219.744 228.861 221.904 226.125 223.488C223.437 225.072 220.317 225.864 216.765 225.864ZM262.505 225.864C257.849 225.864 253.865 224.784 250.553 222.624C247.241 220.416 244.673 217.368 242.849 213.48C241.073 209.544 240.185 204.984 240.185 199.8C240.185 194.664 241.073 190.128 242.849 186.192C244.673 182.256 247.241 179.208 250.553 177.048C253.865 174.84 257.849 173.736 262.505 173.736C267.161 173.736 271.145 174.84 274.457 177.048C277.769 179.208 280.313 182.256 282.089 186.192C283.913 190.128 284.825 194.664 284.825 199.8C284.825 204.984 283.913 209.544 282.089 213.48C280.313 217.368 277.769 220.416 274.457 222.624C271.145 224.784 267.161 225.864 262.505 225.864ZM262.505 217.584C266.297 217.584 269.393 216 271.793 212.832C274.193 209.664 275.393 205.32 275.393 199.8C275.393 194.28 274.193 189.936 271.793 186.768C269.393 183.6 266.297 182.016 262.505 182.016C258.665 182.016 255.545 183.6 253.145 186.768C250.793 189.936 249.617 194.28 249.617 199.8C249.617 205.32 250.793 209.664 253.145 212.832C255.545 216 258.665 217.584 262.505 217.584ZM290.595 208.008V200.304H304.131V187.848H311.979V200.304H325.443V208.008H311.979V220.464H304.131V208.008H290.595Z" fill="#FF753A"/>
<path opacity="0.7" d="M175.886 266V254.1H183.128V255.273H177.314V259.455H182.261V260.611H177.314V266H175.886ZM184.682 266V257.568H185.974L186.093 259.183C186.354 258.628 186.751 258.186 187.283 257.857C187.816 257.528 188.473 257.364 189.255 257.364V258.86H188.864C188.366 258.86 187.907 258.951 187.487 259.132C187.068 259.302 186.734 259.597 186.484 260.016C186.235 260.435 186.11 261.013 186.11 261.75V266H184.682ZM194.134 266.204C193.329 266.204 192.615 266.023 191.992 265.66C191.368 265.286 190.875 264.77 190.513 264.113C190.161 263.456 189.986 262.679 189.986 261.784C189.986 260.9 190.161 260.129 190.513 259.472C190.864 258.803 191.351 258.288 191.975 257.925C192.609 257.551 193.34 257.364 194.168 257.364C194.984 257.364 195.686 257.551 196.276 257.925C196.876 258.288 197.335 258.769 197.653 259.37C197.97 259.971 198.129 260.617 198.129 261.308C198.129 261.433 198.123 261.557 198.112 261.682C198.112 261.807 198.112 261.948 198.112 262.107H191.397C191.431 262.753 191.578 263.291 191.839 263.722C192.111 264.141 192.445 264.459 192.842 264.674C193.25 264.889 193.68 264.997 194.134 264.997C194.723 264.997 195.216 264.861 195.613 264.589C196.009 264.317 196.298 263.949 196.48 263.484H197.891C197.664 264.266 197.228 264.918 196.582 265.439C195.947 265.949 195.131 266.204 194.134 266.204ZM194.134 258.571C193.454 258.571 192.847 258.781 192.315 259.2C191.793 259.608 191.493 260.209 191.414 261.002H196.718C196.684 260.243 196.423 259.648 195.936 259.217C195.448 258.786 194.848 258.571 194.134 258.571ZM203.613 266.204C202.808 266.204 202.094 266.023 201.471 265.66C200.847 265.286 200.354 264.77 199.992 264.113C199.64 263.456 199.465 262.679 199.465 261.784C199.465 260.9 199.64 260.129 199.992 259.472C200.343 258.803 200.83 258.288 201.454 257.925C202.088 257.551 202.819 257.364 203.647 257.364C204.463 257.364 205.165 257.551 205.755 257.925C206.355 258.288 206.814 258.769 207.132 259.37C207.449 259.971 207.608 260.617 207.608 261.308C207.608 261.433 207.602 261.557 207.591 261.682C207.591 261.807 207.591 261.948 207.591 262.107H200.876C200.91 262.753 201.057 263.291 201.318 263.722C201.59 264.141 201.924 264.459 202.321 264.674C202.729 264.889 203.159 264.997 203.613 264.997C204.202 264.997 204.695 264.861 205.092 264.589C205.488 264.317 205.777 263.949 205.959 263.484H207.37C207.143 264.266 206.707 264.918 206.061 265.439C205.426 265.949 204.61 266.204 203.613 266.204ZM203.613 258.571C202.933 258.571 202.326 258.781 201.794 259.2C201.272 259.608 200.972 260.209 200.893 261.002H206.197C206.163 260.243 205.902 259.648 205.415 259.217C204.927 258.786 204.327 258.571 203.613 258.571ZM217.441 266.204C216.648 266.204 215.934 266.023 215.299 265.66C214.665 265.297 214.16 264.787 213.786 264.13C213.424 263.461 213.242 262.679 213.242 261.784C213.242 260.889 213.429 260.112 213.803 259.455C214.177 258.786 214.682 258.271 215.316 257.908C215.962 257.545 216.682 257.364 217.475 257.364C218.269 257.364 218.983 257.545 219.617 257.908C220.252 258.271 220.751 258.786 221.113 259.455C221.487 260.112 221.674 260.889 221.674 261.784C221.674 262.679 221.487 263.461 221.113 264.13C220.739 264.787 220.229 265.297 219.583 265.66C218.949 266.023 218.235 266.204 217.441 266.204ZM217.441 264.98C217.929 264.98 218.382 264.861 218.801 264.623C219.221 264.385 219.561 264.028 219.821 263.552C220.082 263.076 220.212 262.487 220.212 261.784C220.212 261.081 220.082 260.492 219.821 260.016C219.572 259.54 219.238 259.183 218.818 258.945C218.399 258.707 217.951 258.588 217.475 258.588C216.988 258.588 216.535 258.707 216.115 258.945C215.696 259.183 215.356 259.54 215.095 260.016C214.835 260.492 214.704 261.081 214.704 261.784C214.704 262.487 214.835 263.076 215.095 263.552C215.356 264.028 215.69 264.385 216.098 264.623C216.518 264.861 216.965 264.98 217.441 264.98ZM223.46 266V257.568H224.752L224.837 259.081C225.109 258.548 225.5 258.129 226.01 257.823C226.52 257.517 227.098 257.364 227.744 257.364C228.741 257.364 229.534 257.67 230.124 258.282C230.724 258.883 231.025 259.812 231.025 261.07V266H229.597V261.223C229.597 259.466 228.871 258.588 227.421 258.588C226.695 258.588 226.089 258.854 225.602 259.387C225.126 259.908 224.888 260.656 224.888 261.631V266H223.46ZM232.988 266V253.76H234.416V266H232.988ZM237.424 255.698C237.141 255.698 236.903 255.607 236.71 255.426C236.529 255.233 236.438 254.995 236.438 254.712C236.438 254.44 236.529 254.213 236.71 254.032C236.903 253.851 237.141 253.76 237.424 253.76C237.696 253.76 237.928 253.851 238.121 254.032C238.314 254.213 238.41 254.44 238.41 254.712C238.41 254.995 238.314 255.233 238.121 255.426C237.928 255.607 237.696 255.698 237.424 255.698ZM236.71 266V257.568H238.138V266H236.71ZM240.424 266V257.568H241.716L241.801 259.081C242.073 258.548 242.464 258.129 242.974 257.823C243.484 257.517 244.062 257.364 244.708 257.364C245.706 257.364 246.499 257.67 247.088 258.282C247.689 258.883 247.989 259.812 247.989 261.07V266H246.561V261.223C246.561 259.466 245.836 258.588 244.385 258.588C243.66 258.588 243.054 258.854 242.566 259.387C242.09 259.908 241.852 260.656 241.852 261.631V266H240.424ZM253.744 266.204C252.939 266.204 252.225 266.023 251.602 265.66C250.978 265.286 250.485 264.77 250.123 264.113C249.771 263.456 249.596 262.679 249.596 261.784C249.596 260.9 249.771 260.129 250.123 259.472C250.474 258.803 250.961 258.288 251.585 257.925C252.219 257.551 252.95 257.364 253.778 257.364C254.594 257.364 255.296 257.551 255.886 257.925C256.486 258.288 256.945 258.769 257.263 259.37C257.58 259.971 257.739 260.617 257.739 261.308C257.739 261.433 257.733 261.557 257.722 261.682C257.722 261.807 257.722 261.948 257.722 262.107H251.007C251.041 262.753 251.188 263.291 251.449 263.722C251.721 264.141 252.055 264.459 252.452 264.674C252.86 264.889 253.29 264.997 253.744 264.997C254.333 264.997 254.826 264.861 255.223 264.589C255.619 264.317 255.908 263.949 256.09 263.484H257.501C257.274 264.266 256.838 264.918 256.192 265.439C255.557 265.949 254.741 266.204 253.744 266.204ZM253.744 258.571C253.064 258.571 252.457 258.781 251.925 259.2C251.403 259.608 251.103 260.209 251.024 261.002H256.328C256.294 260.243 256.033 259.648 255.546 259.217C255.058 258.786 254.458 258.571 253.744 258.571ZM267.063 266C266.292 266 265.686 265.813 265.244 265.439C264.802 265.065 264.581 264.391 264.581 263.416V258.775H263.119V257.568H264.581L264.768 255.545H266.009V257.568H268.491V258.775H266.009V263.416C266.009 263.949 266.116 264.311 266.332 264.504C266.547 264.685 266.927 264.776 267.471 264.776H268.355V266H267.063ZM277.483 257.568V266H276.191L276.106 264.487C275.834 265.02 275.443 265.439 274.933 265.745C274.423 266.051 273.845 266.204 273.199 266.204C272.201 266.204 271.402 265.904 270.802 265.303C270.212 264.691 269.918 263.756 269.918 262.498V257.568H271.346V262.345C271.346 264.102 272.071 264.98 273.522 264.98C274.247 264.98 274.848 264.719 275.324 264.198C275.811 263.665 276.055 262.912 276.055 261.937V257.568H277.483ZM282.965 266C282.195 266 281.588 265.813 281.146 265.439C280.704 265.065 280.483 264.391 280.483 263.416V258.775H279.021V257.568H280.483L280.67 255.545H281.911V257.568H284.393V258.775H281.911V263.416C281.911 263.949 282.019 264.311 282.234 264.504C282.45 264.685 282.829 264.776 283.373 264.776H284.257V266H282.965ZM289.617 266.204C288.824 266.204 288.11 266.023 287.475 265.66C286.84 265.297 286.336 264.787 285.962 264.13C285.599 263.461 285.418 262.679 285.418 261.784C285.418 260.889 285.605 260.112 285.979 259.455C286.353 258.786 286.857 258.271 287.492 257.908C288.138 257.545 288.858 257.364 289.651 257.364C290.444 257.364 291.158 257.545 291.793 257.908C292.428 258.271 292.926 258.786 293.289 259.455C293.663 260.112 293.85 260.889 293.85 261.784C293.85 262.679 293.663 263.461 293.289 264.13C292.915 264.787 292.405 265.297 291.759 265.66C291.124 266.023 290.41 266.204 289.617 266.204ZM289.617 264.98C290.104 264.98 290.558 264.861 290.977 264.623C291.396 264.385 291.736 264.028 291.997 263.552C292.258 263.076 292.388 262.487 292.388 261.784C292.388 261.081 292.258 260.492 291.997 260.016C291.748 259.54 291.413 259.183 290.994 258.945C290.575 258.707 290.127 258.588 289.651 258.588C289.164 258.588 288.71 258.707 288.291 258.945C287.872 259.183 287.532 259.54 287.271 260.016C287.01 260.492 286.88 261.081 286.88 261.784C286.88 262.487 287.01 263.076 287.271 263.552C287.532 264.028 287.866 264.385 288.274 264.623C288.693 264.861 289.141 264.98 289.617 264.98ZM295.636 266V257.568H296.928L297.047 259.183C297.307 258.628 297.704 258.186 298.237 257.857C298.769 257.528 299.427 257.364 300.209 257.364V258.86H299.818C299.319 258.86 298.86 258.951 298.441 259.132C298.021 259.302 297.687 259.597 297.438 260.016C297.188 260.435 297.064 261.013 297.064 261.75V266H295.636ZM302.478 255.698C302.195 255.698 301.957 255.607 301.764 255.426C301.583 255.233 301.492 254.995 301.492 254.712C301.492 254.44 301.583 254.213 301.764 254.032C301.957 253.851 302.195 253.76 302.478 253.76C302.75 253.76 302.983 253.851 303.175 254.032C303.368 254.213 303.464 254.44 303.464 254.712C303.464 254.995 303.368 255.233 303.175 255.426C302.983 255.607 302.75 255.698 302.478 255.698ZM301.764 266V257.568H303.192V266H301.764ZM308.284 266.204C307.581 266.204 306.997 266.085 306.533 265.847C306.068 265.609 305.722 265.292 305.496 264.895C305.269 264.498 305.156 264.068 305.156 263.603C305.156 262.742 305.484 262.079 306.142 261.614C306.799 261.149 307.694 260.917 308.828 260.917H311.106V260.815C311.106 260.078 310.913 259.523 310.528 259.149C310.142 258.764 309.627 258.571 308.981 258.571C308.425 258.571 307.944 258.713 307.536 258.996C307.139 259.268 306.89 259.67 306.788 260.203H305.326C305.382 259.591 305.586 259.075 305.938 258.656C306.3 258.237 306.748 257.919 307.281 257.704C307.813 257.477 308.38 257.364 308.981 257.364C310.159 257.364 311.043 257.681 311.633 258.316C312.233 258.939 312.534 259.772 312.534 260.815V266H311.259L311.174 264.487C310.936 264.963 310.584 265.371 310.12 265.711C309.666 266.04 309.054 266.204 308.284 266.204ZM308.505 264.997C309.049 264.997 309.513 264.855 309.899 264.572C310.295 264.289 310.596 263.92 310.8 263.467C311.004 263.014 311.106 262.538 311.106 262.039V262.022H308.947C308.108 262.022 307.513 262.169 307.162 262.464C306.822 262.747 306.652 263.104 306.652 263.535C306.652 263.977 306.81 264.334 307.128 264.606C307.456 264.867 307.915 264.997 308.505 264.997ZM314.476 266V253.76H315.904V266H314.476ZM321.275 266.204C320.266 266.204 319.427 265.949 318.759 265.439C318.09 264.929 317.699 264.238 317.586 263.365H319.048C319.138 263.807 319.371 264.192 319.745 264.521C320.13 264.838 320.646 264.997 321.292 264.997C321.892 264.997 322.334 264.872 322.618 264.623C322.901 264.362 323.043 264.056 323.043 263.705C323.043 263.195 322.856 262.855 322.482 262.685C322.119 262.515 321.603 262.362 320.935 262.226C320.481 262.135 320.028 262.005 319.575 261.835C319.121 261.665 318.742 261.427 318.436 261.121C318.13 260.804 317.977 260.39 317.977 259.88C317.977 259.143 318.249 258.543 318.793 258.078C319.348 257.602 320.096 257.364 321.037 257.364C321.932 257.364 322.663 257.591 323.23 258.044C323.808 258.486 324.142 259.121 324.233 259.948H322.822C322.765 259.517 322.578 259.183 322.261 258.945C321.955 258.696 321.541 258.571 321.02 258.571C320.51 258.571 320.113 258.679 319.83 258.894C319.558 259.109 319.422 259.393 319.422 259.744C319.422 260.084 319.597 260.35 319.949 260.543C320.311 260.736 320.799 260.9 321.411 261.036C321.932 261.149 322.425 261.291 322.89 261.461C323.366 261.62 323.751 261.863 324.046 262.192C324.352 262.509 324.505 262.974 324.505 263.586C324.516 264.345 324.227 264.974 323.638 265.473C323.06 265.96 322.272 266.204 321.275 266.204ZM193.097 292L189.901 283.568H191.397L193.93 290.623L196.48 283.568H197.942L194.746 292H193.097ZM200.198 281.698C199.915 281.698 199.677 281.607 199.484 281.426C199.303 281.233 199.212 280.995 199.212 280.712C199.212 280.44 199.303 280.213 199.484 280.032C199.677 279.851 199.915 279.76 200.198 279.76C200.47 279.76 200.703 279.851 200.895 280.032C201.088 280.213 201.184 280.44 201.184 280.712C201.184 280.995 201.088 281.233 200.895 281.426C200.703 281.607 200.47 281.698 200.198 281.698ZM199.484 292V283.568H200.912V292H199.484ZM207.024 292.204C206.185 292.204 205.448 292.011 204.814 291.626C204.19 291.241 203.703 290.714 203.352 290.045C203.012 289.376 202.842 288.617 202.842 287.767C202.842 286.917 203.017 286.163 203.369 285.506C203.72 284.837 204.207 284.316 204.831 283.942C205.454 283.557 206.191 283.364 207.041 283.364C207.732 283.364 208.344 283.506 208.877 283.789C209.409 284.072 209.823 284.469 210.118 284.979V279.76H211.546V292H210.254L210.118 290.606C209.846 291.014 209.455 291.382 208.945 291.711C208.435 292.04 207.794 292.204 207.024 292.204ZM207.177 290.963C207.743 290.963 208.242 290.833 208.673 290.572C209.115 290.3 209.455 289.926 209.693 289.45C209.942 288.974 210.067 288.419 210.067 287.784C210.067 287.149 209.942 286.594 209.693 286.118C209.455 285.642 209.115 285.274 208.673 285.013C208.242 284.741 207.743 284.605 207.177 284.605C206.621 284.605 206.123 284.741 205.681 285.013C205.25 285.274 204.91 285.642 204.661 286.118C204.423 286.594 204.304 287.149 204.304 287.784C204.304 288.419 204.423 288.974 204.661 289.45C204.91 289.926 205.25 290.3 205.681 290.572C206.123 290.833 206.621 290.963 207.177 290.963ZM217.465 292.204C216.66 292.204 215.946 292.023 215.323 291.66C214.699 291.286 214.206 290.77 213.844 290.113C213.492 289.456 213.317 288.679 213.317 287.784C213.317 286.9 213.492 286.129 213.844 285.472C214.195 284.803 214.682 284.288 215.306 283.925C215.94 283.551 216.671 283.364 217.499 283.364C218.315 283.364 219.017 283.551 219.607 283.925C220.207 284.288 220.666 284.769 220.984 285.37C221.301 285.971 221.46 286.617 221.46 287.308C221.46 287.433 221.454 287.557 221.443 287.682C221.443 287.807 221.443 287.948 221.443 288.107H214.728C214.762 288.753 214.909 289.291 215.17 289.722C215.442 290.141 215.776 290.459 216.173 290.674C216.581 290.889 217.011 290.997 217.465 290.997C218.054 290.997 218.547 290.861 218.944 290.589C219.34 290.317 219.629 289.949 219.811 289.484H221.222C220.995 290.266 220.559 290.918 219.913 291.439C219.278 291.949 218.462 292.204 217.465 292.204ZM217.465 284.571C216.785 284.571 216.178 284.781 215.646 285.2C215.124 285.608 214.824 286.209 214.745 287.002H220.049C220.015 286.243 219.754 285.648 219.267 285.217C218.779 284.786 218.179 284.571 217.465 284.571ZM226.994 292.204C226.201 292.204 225.487 292.023 224.852 291.66C224.218 291.297 223.713 290.787 223.339 290.13C222.977 289.461 222.795 288.679 222.795 287.784C222.795 286.889 222.982 286.112 223.356 285.455C223.73 284.786 224.235 284.271 224.869 283.908C225.515 283.545 226.235 283.364 227.028 283.364C227.822 283.364 228.536 283.545 229.17 283.908C229.805 284.271 230.304 284.786 230.666 285.455C231.04 286.112 231.227 286.889 231.227 287.784C231.227 288.679 231.04 289.461 230.666 290.13C230.292 290.787 229.782 291.297 229.136 291.66C228.502 292.023 227.788 292.204 226.994 292.204ZM226.994 290.98C227.482 290.98 227.935 290.861 228.354 290.623C228.774 290.385 229.114 290.028 229.374 289.552C229.635 289.076 229.765 288.487 229.765 287.784C229.765 287.081 229.635 286.492 229.374 286.016C229.125 285.54 228.791 285.183 228.371 284.945C227.952 284.707 227.504 284.588 227.028 284.588C226.541 284.588 226.088 284.707 225.668 284.945C225.249 285.183 224.909 285.54 224.648 286.016C224.388 286.492 224.257 287.081 224.257 287.784C224.257 288.487 224.388 289.076 224.648 289.552C224.909 290.028 225.243 290.385 225.651 290.623C226.071 290.861 226.518 290.98 226.994 290.98ZM236.243 292.204C235.234 292.204 234.396 291.949 233.727 291.439C233.058 290.929 232.667 290.238 232.554 289.365H234.016C234.107 289.807 234.339 290.192 234.713 290.521C235.098 290.838 235.614 290.997 236.26 290.997C236.861 290.997 237.303 290.872 237.586 290.623C237.869 290.362 238.011 290.056 238.011 289.705C238.011 289.195 237.824 288.855 237.45 288.685C237.087 288.515 236.572 288.362 235.903 288.226C235.45 288.135 234.996 288.005 234.543 287.835C234.09 287.665 233.71 287.427 233.404 287.121C233.098 286.804 232.945 286.39 232.945 285.88C232.945 285.143 233.217 284.543 233.761 284.078C234.316 283.602 235.064 283.364 236.005 283.364C236.9 283.364 237.631 283.591 238.198 284.044C238.776 284.486 239.11 285.121 239.201 285.948H237.79C237.733 285.517 237.546 285.183 237.229 284.945C236.923 284.696 236.509 284.571 235.988 284.571C235.478 284.571 235.081 284.679 234.798 284.894C234.526 285.109 234.39 285.393 234.39 285.744C234.39 286.084 234.566 286.35 234.917 286.543C235.28 286.736 235.767 286.9 236.379 287.036C236.9 287.149 237.393 287.291 237.858 287.461C238.334 287.62 238.719 287.863 239.014 288.192C239.32 288.509 239.473 288.974 239.473 289.586C239.484 290.345 239.195 290.974 238.606 291.473C238.028 291.96 237.24 292.204 236.243 292.204ZM248.417 292.204C247.714 292.204 247.131 292.085 246.666 291.847C246.201 291.609 245.856 291.292 245.629 290.895C245.402 290.498 245.289 290.068 245.289 289.603C245.289 288.742 245.618 288.079 246.275 287.614C246.932 287.149 247.828 286.917 248.961 286.917H251.239V286.815C251.239 286.078 251.046 285.523 250.661 285.149C250.276 284.764 249.76 284.571 249.114 284.571C248.559 284.571 248.077 284.713 247.669 284.996C247.272 285.268 247.023 285.67 246.921 286.203H245.459C245.516 285.591 245.72 285.075 246.071 284.656C246.434 284.237 246.881 283.919 247.414 283.704C247.947 283.477 248.513 283.364 249.114 283.364C250.293 283.364 251.177 283.681 251.766 284.316C252.367 284.939 252.667 285.772 252.667 286.815V292H251.392L251.307 290.487C251.069 290.963 250.718 291.371 250.253 291.711C249.8 292.04 249.188 292.204 248.417 292.204ZM248.638 290.997C249.182 290.997 249.647 290.855 250.032 290.572C250.429 290.289 250.729 289.92 250.933 289.467C251.137 289.014 251.239 288.538 251.239 288.039V288.022H249.08C248.241 288.022 247.646 288.169 247.295 288.464C246.955 288.747 246.785 289.104 246.785 289.535C246.785 289.977 246.944 290.334 247.261 290.606C247.59 290.867 248.049 290.997 248.638 290.997ZM256.725 292L253.529 283.568H255.025L257.558 290.623L260.108 283.568H261.57L258.374 292H256.725ZM265.332 292.204C264.63 292.204 264.046 292.085 263.581 291.847C263.117 291.609 262.771 291.292 262.544 290.895C262.318 290.498 262.204 290.068 262.204 289.603C262.204 288.742 262.533 288.079 263.19 287.614C263.848 287.149 264.743 286.917 265.876 286.917H268.154V286.815C268.154 286.078 267.962 285.523 267.576 285.149C267.191 284.764 266.675 284.571 266.029 284.571C265.474 284.571 264.992 284.713 264.584 284.996C264.188 285.268 263.938 285.67 263.836 286.203H262.374C262.431 285.591 262.635 285.075 262.986 284.656C263.349 284.237 263.797 283.919 264.329 283.704C264.862 283.477 265.429 283.364 266.029 283.364C267.208 283.364 268.092 283.681 268.681 284.316C269.282 284.939 269.582 285.772 269.582 286.815V292H268.307L268.222 290.487C267.984 290.963 267.633 291.371 267.168 291.711C266.715 292.04 266.103 292.204 265.332 292.204ZM265.553 290.997C266.097 290.997 266.562 290.855 266.947 290.572C267.344 290.289 267.644 289.92 267.848 289.467C268.052 289.014 268.154 288.538 268.154 288.039V288.022H265.995C265.157 288.022 264.562 288.169 264.21 288.464C263.87 288.747 263.7 289.104 263.7 289.535C263.7 289.977 263.859 290.334 264.176 290.606C264.505 290.867 264.964 290.997 265.553 290.997ZM272.392 281.698C272.108 281.698 271.87 281.607 271.678 281.426C271.496 281.233 271.406 280.995 271.406 280.712C271.406 280.44 271.496 280.213 271.678 280.032C271.87 279.851 272.108 279.76 272.392 279.76C272.664 279.76 272.896 279.851 273.089 280.032C273.281 280.213 273.378 280.44 273.378 280.712C273.378 280.995 273.281 281.233 273.089 281.426C272.896 281.607 272.664 281.698 272.392 281.698ZM271.678 292V283.568H273.106V292H271.678ZM278.197 292.204C277.494 292.204 276.911 292.085 276.446 291.847C275.981 291.609 275.636 291.292 275.409 290.895C275.182 290.498 275.069 290.068 275.069 289.603C275.069 288.742 275.398 288.079 276.055 287.614C276.712 287.149 277.608 286.917 278.741 286.917H281.019V286.815C281.019 286.078 280.826 285.523 280.441 285.149C280.056 284.764 279.54 284.571 278.894 284.571C278.339 284.571 277.857 284.713 277.449 284.996C277.052 285.268 276.803 285.67 276.701 286.203H275.239C275.296 285.591 275.5 285.075 275.851 284.656C276.214 284.237 276.661 283.919 277.194 283.704C277.727 283.477 278.293 283.364 278.894 283.364C280.073 283.364 280.957 283.681 281.546 284.316C282.147 284.939 282.447 285.772 282.447 286.815V292H281.172L281.087 290.487C280.849 290.963 280.498 291.371 280.033 291.711C279.58 292.04 278.968 292.204 278.197 292.204ZM278.418 290.997C278.962 290.997 279.427 290.855 279.812 290.572C280.209 290.289 280.509 289.92 280.713 289.467C280.917 289.014 281.019 288.538 281.019 288.039V288.022H278.86C278.021 288.022 277.426 288.169 277.075 288.464C276.735 288.747 276.565 289.104 276.565 289.535C276.565 289.977 276.724 290.334 277.041 290.606C277.37 290.867 277.829 290.997 278.418 290.997ZM284.389 292V279.76H285.817V292H284.389ZM292.463 292.204C291.771 292.204 291.154 292.062 290.61 291.779C290.077 291.496 289.669 291.099 289.386 290.589L289.25 292H287.958V279.76H289.386V284.962C289.658 284.554 290.043 284.186 290.542 283.857C291.052 283.528 291.698 283.364 292.48 283.364C293.318 283.364 294.049 283.557 294.673 283.942C295.296 284.327 295.778 284.854 296.118 285.523C296.469 286.192 296.645 286.951 296.645 287.801C296.645 288.651 296.469 289.41 296.118 290.079C295.778 290.736 295.29 291.258 294.656 291.643C294.032 292.017 293.301 292.204 292.463 292.204ZM292.31 290.963C292.876 290.963 293.375 290.833 293.806 290.572C294.236 290.3 294.576 289.926 294.826 289.45C295.075 288.974 295.2 288.419 295.2 287.784C295.2 287.149 295.075 286.594 294.826 286.118C294.576 285.642 294.236 285.274 293.806 285.013C293.375 284.741 292.876 284.605 292.31 284.605C291.743 284.605 291.244 284.741 290.814 285.013C290.383 285.274 290.043 285.642 289.794 286.118C289.544 286.594 289.42 287.149 289.42 287.784C289.42 288.419 289.544 288.974 289.794 289.45C290.043 289.926 290.383 290.3 290.814 290.572C291.244 290.833 291.743 290.963 292.31 290.963ZM298.433 292V279.76H299.861V292H298.433ZM305.792 292.204C304.987 292.204 304.273 292.023 303.65 291.66C303.027 291.286 302.534 290.77 302.171 290.113C301.82 289.456 301.644 288.679 301.644 287.784C301.644 286.9 301.82 286.129 302.171 285.472C302.522 284.803 303.01 284.288 303.633 283.925C304.268 283.551 304.999 283.364 305.826 283.364C306.642 283.364 307.345 283.551 307.934 283.925C308.535 284.288 308.994 284.769 309.311 285.37C309.628 285.971 309.787 286.617 309.787 287.308C309.787 287.433 309.781 287.557 309.77 287.682C309.77 287.807 309.77 287.948 309.77 288.107H303.055C303.089 288.753 303.236 289.291 303.497 289.722C303.769 290.141 304.103 290.459 304.5 290.674C304.908 290.889 305.339 290.997 305.792 290.997C306.381 290.997 306.874 290.861 307.271 290.589C307.668 290.317 307.957 289.949 308.138 289.484H309.549C309.322 290.266 308.886 290.918 308.24 291.439C307.605 291.949 306.789 292.204 305.792 292.204ZM305.792 284.571C305.112 284.571 304.506 284.781 303.973 285.2C303.452 285.608 303.151 286.209 303.072 287.002H308.376C308.342 286.243 308.081 285.648 307.594 285.217C307.107 284.786 306.506 284.571 305.792 284.571Z" fill="#0F2137"/>
<defs>
<filter id="filter0_d_1_2340" x="0" y="0" width="500" height="520" filterUnits="userSpaceOnUse" color-interpolation-filters="sRGB">
<feFlood flood-opacity="0" result="BackgroundImageFix"/>
<feColorMatrix in="SourceAlpha" type="matrix" values="0 0 0 0 0 0 0 0 0 0 0 0 0 0 0 0 0 0 127 0" result="hardAlpha"/>
<feOffset dy="25"/>
<feGaussianBlur stdDeviation="50"/>
<feColorMatrix type="matrix" values="0 0 0 0 0.269792 0 0 0 0 0.346104 0 0 0 0 0.616667 0 0 0 0.08 0"/>
<feBlend mode="normal" in2="BackgroundImageFix" result="effect1_dropShadow_1_2340"/>
<feBlend mode="normal" in="SourceGraphic" in2="effect1_dropShadow_1_2340" result="shape"/>
</filter>
</defs>
</svg>
