<svg width="500" height="520" viewBox="0 0 500 520" fill="none" xmlns="http://www.w3.org/2000/svg">
<g filter="url(#filter0_d_1_2344)">
<g filter="url(#filter1_d_1_2344)">
<rect x="100" y="75" width="300" height="320" rx="10" fill="white"/>
</g>
<path d="M184.016 225.864C180.56 225.864 177.44 225.264 174.656 224.064C171.872 222.816 169.64 221.064 167.96 218.808C166.328 216.552 165.512 213.936 165.512 210.96C165.512 207.888 166.304 205.2 167.888 202.896C169.52 200.592 171.656 198.936 174.296 197.928C171.992 196.92 170.168 195.48 168.824 193.608C167.48 191.688 166.808 189.552 166.808 187.2C166.808 184.8 167.456 182.592 168.752 180.576C170.048 178.512 171.968 176.856 174.512 175.608C177.104 174.36 180.272 173.736 184.016 173.736C187.76 173.736 190.904 174.36 193.448 175.608C195.992 176.856 197.912 178.512 199.208 180.576C200.504 182.592 201.152 184.8 201.152 187.2C201.152 189.504 200.456 191.64 199.064 193.608C197.72 195.528 195.92 196.968 193.664 197.928C196.352 198.936 198.488 200.592 200.072 202.896C201.656 205.2 202.448 207.888 202.448 210.96C202.448 213.936 201.632 216.552 200 218.808C198.368 221.064 196.136 222.816 193.304 224.064C190.52 225.264 187.424 225.864 184.016 225.864ZM184.016 195.192C186.512 195.192 188.48 194.544 189.92 193.248C191.36 191.952 192.08 190.296 192.08 188.28C192.08 186.072 191.36 184.344 189.92 183.096C188.528 181.848 186.56 181.224 184.016 181.224C181.424 181.224 179.432 181.848 178.04 183.096C176.648 184.344 175.952 186.072 175.952 188.28C175.952 190.344 176.648 192.024 178.04 193.32C179.48 194.568 181.472 195.192 184.016 195.192ZM184.016 218.16C187.088 218.16 189.416 217.416 191 215.928C192.584 214.392 193.376 212.472 193.376 210.168C193.376 207.624 192.536 205.632 190.856 204.192C189.224 202.752 186.944 202.032 184.016 202.032C181.088 202.032 178.76 202.752 177.032 204.192C175.352 205.632 174.512 207.624 174.512 210.168C174.512 212.472 175.304 214.392 176.888 215.928C178.52 217.416 180.896 218.16 184.016 218.16ZM230.677 225.864C226.021 225.864 222.037 224.784 218.725 222.624C215.413 220.416 212.845 217.368 211.021 213.48C209.245 209.544 208.357 204.984 208.357 199.8C208.357 194.664 209.245 190.128 211.021 186.192C212.845 182.256 215.413 179.208 218.725 177.048C222.037 174.84 226.021 173.736 230.677 173.736C235.333 173.736 239.317 174.84 242.629 177.048C245.941 179.208 248.485 182.256 250.261 186.192C252.085 190.128 252.997 194.664 252.997 199.8C252.997 204.984 252.085 209.544 250.261 213.48C248.485 217.368 245.941 220.416 242.629 222.624C239.317 224.784 235.333 225.864 230.677 225.864ZM230.677 217.584C234.469 217.584 237.565 216 239.965 212.832C242.365 209.664 243.565 205.32 243.565 199.8C243.565 194.28 242.365 189.936 239.965 186.768C237.565 183.6 234.469 182.016 230.677 182.016C226.837 182.016 223.717 183.6 221.317 186.768C218.965 189.936 217.789 194.28 217.789 199.8C217.789 205.32 218.965 209.664 221.317 212.832C223.717 216 226.837 217.584 230.677 217.584ZM259.63 225V174.6H268.846V194.976L287.494 174.6H298.87L280.294 194.616L299.374 225H288.07L273.67 201.672L268.846 206.928V225H259.63ZM299.735 208.008V200.304H313.271V187.848H321.119V200.304H334.583V208.008H321.119V220.464H313.271V208.008H299.735Z" fill="#28D1DC"/>
<path opacity="0.7" d="M179.653 266.017L176.389 254.1H177.919L180.486 264.317L183.41 254.1H184.991L187.83 264.317L190.431 254.1H191.961L188.629 266H186.997L184.158 256.174L181.251 266L179.653 266.017ZM196.283 266.204C195.479 266.204 194.765 266.023 194.141 265.66C193.518 265.286 193.025 264.77 192.662 264.113C192.311 263.456 192.135 262.679 192.135 261.784C192.135 260.9 192.311 260.129 192.662 259.472C193.014 258.803 193.501 258.288 194.124 257.925C194.759 257.551 195.49 257.364 196.317 257.364C197.133 257.364 197.836 257.551 198.425 257.925C199.026 258.288 199.485 258.769 199.802 259.37C200.12 259.971 200.278 260.617 200.278 261.308C200.278 261.433 200.273 261.557 200.261 261.682C200.261 261.807 200.261 261.948 200.261 262.107H193.546C193.58 262.753 193.728 263.291 193.988 263.722C194.26 264.141 194.595 264.459 194.991 264.674C195.399 264.889 195.83 264.997 196.283 264.997C196.873 264.997 197.366 264.861 197.762 264.589C198.159 264.317 198.448 263.949 198.629 263.484H200.04C199.814 264.266 199.377 264.918 198.731 265.439C198.097 265.949 197.281 266.204 196.283 266.204ZM196.283 258.571C195.603 258.571 194.997 258.781 194.464 259.2C193.943 259.608 193.643 260.209 193.563 261.002H198.867C198.833 260.243 198.573 259.648 198.085 259.217C197.598 258.786 196.997 258.571 196.283 258.571ZM206.27 266V253.76H207.698V259.013C207.981 258.492 208.384 258.089 208.905 257.806C209.426 257.511 209.993 257.364 210.605 257.364C211.58 257.364 212.362 257.67 212.951 258.282C213.54 258.883 213.835 259.812 213.835 261.07V266H212.424V261.223C212.424 259.466 211.716 258.588 210.299 258.588C209.562 258.588 208.945 258.854 208.446 259.387C207.947 259.908 207.698 260.656 207.698 261.631V266H206.27ZM218.604 266.204C217.901 266.204 217.317 266.085 216.853 265.847C216.388 265.609 216.042 265.292 215.816 264.895C215.589 264.498 215.476 264.068 215.476 263.603C215.476 262.742 215.804 262.079 216.462 261.614C217.119 261.149 218.014 260.917 219.148 260.917H221.426V260.815C221.426 260.078 221.233 259.523 220.848 259.149C220.462 258.764 219.947 258.571 219.301 258.571C218.745 258.571 218.264 258.713 217.856 258.996C217.459 259.268 217.21 259.67 217.108 260.203H215.646C215.702 259.591 215.906 259.075 216.258 258.656C216.62 258.237 217.068 257.919 217.601 257.704C218.133 257.477 218.7 257.364 219.301 257.364C220.479 257.364 221.363 257.681 221.953 258.316C222.553 258.939 222.854 259.772 222.854 260.815V266H221.579L221.494 264.487C221.256 264.963 220.904 265.371 220.44 265.711C219.986 266.04 219.374 266.204 218.604 266.204ZM218.825 264.997C219.369 264.997 219.833 264.855 220.219 264.572C220.615 264.289 220.916 263.92 221.12 263.467C221.324 263.014 221.426 262.538 221.426 262.039V262.022H219.267C218.428 262.022 217.833 262.169 217.482 262.464C217.142 262.747 216.972 263.104 216.972 263.535C216.972 263.977 217.13 264.334 217.448 264.606C217.776 264.867 218.235 264.997 218.825 264.997ZM226.911 266L223.715 257.568H225.211L227.744 264.623L230.294 257.568H231.756L228.56 266H226.911ZM236.505 266.204C235.7 266.204 234.986 266.023 234.363 265.66C233.74 265.286 233.247 264.77 232.884 264.113C232.533 263.456 232.357 262.679 232.357 261.784C232.357 260.9 232.533 260.129 232.884 259.472C233.235 258.803 233.723 258.288 234.346 257.925C234.981 257.551 235.712 257.364 236.539 257.364C237.355 257.364 238.058 257.551 238.647 257.925C239.248 258.288 239.707 258.769 240.024 259.37C240.341 259.971 240.5 260.617 240.5 261.308C240.5 261.433 240.494 261.557 240.483 261.682C240.483 261.807 240.483 261.948 240.483 262.107H233.768C233.802 262.753 233.949 263.291 234.21 263.722C234.482 264.141 234.816 264.459 235.213 264.674C235.621 264.889 236.052 264.997 236.505 264.997C237.094 264.997 237.587 264.861 237.984 264.589C238.381 264.317 238.67 263.949 238.851 263.484H240.262C240.035 264.266 239.599 264.918 238.953 265.439C238.318 265.949 237.502 266.204 236.505 266.204ZM236.505 258.571C235.825 258.571 235.219 258.781 234.686 259.2C234.165 259.608 233.864 260.209 233.785 261.002H239.089C239.055 260.243 238.794 259.648 238.307 259.217C237.82 258.786 237.219 258.571 236.505 258.571ZM246.492 266V257.568H247.784L247.886 258.792C248.158 258.339 248.52 257.987 248.974 257.738C249.427 257.489 249.937 257.364 250.504 257.364C251.172 257.364 251.745 257.5 252.221 257.772C252.708 258.044 253.082 258.458 253.343 259.013C253.637 258.503 254.04 258.101 254.55 257.806C255.071 257.511 255.632 257.364 256.233 257.364C257.241 257.364 258.046 257.67 258.647 258.282C259.247 258.883 259.548 259.812 259.548 261.07V266H258.137V261.223C258.137 260.35 257.961 259.693 257.61 259.251C257.258 258.809 256.754 258.588 256.097 258.588C255.417 258.588 254.85 258.854 254.397 259.387C253.955 259.908 253.734 260.656 253.734 261.631V266H252.306V261.223C252.306 260.35 252.13 259.693 251.779 259.251C251.427 258.809 250.923 258.588 250.266 258.588C249.597 258.588 249.036 258.854 248.583 259.387C248.141 259.908 247.92 260.656 247.92 261.631V266H246.492ZM265.341 266.204C264.547 266.204 263.833 266.023 263.199 265.66C262.564 265.297 262.06 264.787 261.686 264.13C261.323 263.461 261.142 262.679 261.142 261.784C261.142 260.889 261.329 260.112 261.703 259.455C262.077 258.786 262.581 258.271 263.216 257.908C263.862 257.545 264.581 257.364 265.375 257.364C266.168 257.364 266.882 257.545 267.517 257.908C268.151 258.271 268.65 258.786 269.013 259.455C269.387 260.112 269.574 260.889 269.574 261.784C269.574 262.679 269.387 263.461 269.013 264.13C268.639 264.787 268.129 265.297 267.483 265.66C266.848 266.023 266.134 266.204 265.341 266.204ZM265.341 264.98C265.828 264.98 266.281 264.861 266.701 264.623C267.12 264.385 267.46 264.028 267.721 263.552C267.981 263.076 268.112 262.487 268.112 261.784C268.112 261.081 267.981 260.492 267.721 260.016C267.471 259.54 267.137 259.183 266.718 258.945C266.298 258.707 265.851 258.588 265.375 258.588C264.887 258.588 264.434 258.707 264.015 258.945C263.595 259.183 263.255 259.54 262.995 260.016C262.734 260.492 262.604 261.081 262.604 261.784C262.604 262.487 262.734 263.076 262.995 263.552C263.255 264.028 263.59 264.385 263.998 264.623C264.417 264.861 264.865 264.98 265.341 264.98ZM271.359 266V257.568H272.651L272.77 259.183C273.031 258.628 273.428 258.186 273.96 257.857C274.493 257.528 275.15 257.364 275.932 257.364V258.86H275.541C275.043 258.86 274.584 258.951 274.164 259.132C273.745 259.302 273.411 259.597 273.161 260.016C272.912 260.435 272.787 261.013 272.787 261.75V266H271.359ZM280.811 266.204C280.006 266.204 279.292 266.023 278.669 265.66C278.045 265.286 277.552 264.77 277.19 264.113C276.838 263.456 276.663 262.679 276.663 261.784C276.663 260.9 276.838 260.129 277.19 259.472C277.541 258.803 278.028 258.288 278.652 257.925C279.286 257.551 280.017 257.364 280.845 257.364C281.661 257.364 282.363 257.551 282.953 257.925C283.553 258.288 284.012 258.769 284.33 259.37C284.647 259.971 284.806 260.617 284.806 261.308C284.806 261.433 284.8 261.557 284.789 261.682C284.789 261.807 284.789 261.948 284.789 262.107H278.074C278.108 262.753 278.255 263.291 278.516 263.722C278.788 264.141 279.122 264.459 279.519 264.674C279.927 264.889 280.357 264.997 280.811 264.997C281.4 264.997 281.893 264.861 282.29 264.589C282.686 264.317 282.975 263.949 283.157 263.484H284.568C284.341 264.266 283.905 264.918 283.259 265.439C282.624 265.949 281.808 266.204 280.811 266.204ZM280.811 258.571C280.131 258.571 279.524 258.781 278.992 259.2C278.47 259.608 278.17 260.209 278.091 261.002H283.395C283.361 260.243 283.1 259.648 282.613 259.217C282.125 258.786 281.525 258.571 280.811 258.571ZM294.129 266C293.359 266 292.752 265.813 292.31 265.439C291.868 265.065 291.647 264.391 291.647 263.416V258.775H290.185V257.568H291.647L291.834 255.545H293.075V257.568H295.557V258.775H293.075V263.416C293.075 263.949 293.183 264.311 293.398 264.504C293.614 264.685 293.993 264.776 294.537 264.776H295.421V266H294.129ZM297.172 266V253.76H298.6V259.013C298.883 258.492 299.285 258.089 299.807 257.806C300.328 257.511 300.895 257.364 301.507 257.364C302.481 257.364 303.263 257.67 303.853 258.282C304.442 258.883 304.737 259.812 304.737 261.07V266H303.326V261.223C303.326 259.466 302.617 258.588 301.201 258.588C300.464 258.588 299.846 258.854 299.348 259.387C298.849 259.908 298.6 260.656 298.6 261.631V266H297.172ZM309.505 266.204C308.802 266.204 308.219 266.085 307.754 265.847C307.289 265.609 306.944 265.292 306.717 264.895C306.49 264.498 306.377 264.068 306.377 263.603C306.377 262.742 306.706 262.079 307.363 261.614C308.02 261.149 308.916 260.917 310.049 260.917H312.327V260.815C312.327 260.078 312.134 259.523 311.749 259.149C311.364 258.764 310.848 258.571 310.202 258.571C309.647 258.571 309.165 258.713 308.757 258.996C308.36 259.268 308.111 259.67 308.009 260.203H306.547C306.604 259.591 306.808 259.075 307.159 258.656C307.522 258.237 307.969 257.919 308.502 257.704C309.035 257.477 309.601 257.364 310.202 257.364C311.381 257.364 312.265 257.681 312.854 258.316C313.455 258.939 313.755 259.772 313.755 260.815V266H312.48L312.395 264.487C312.157 264.963 311.806 265.371 311.341 265.711C310.888 266.04 310.276 266.204 309.505 266.204ZM309.726 264.997C310.27 264.997 310.735 264.855 311.12 264.572C311.517 264.289 311.817 263.92 312.021 263.467C312.225 263.014 312.327 262.538 312.327 262.039V262.022H310.168C309.329 262.022 308.734 262.169 308.383 262.464C308.043 262.747 307.873 263.104 307.873 263.535C307.873 263.977 308.032 264.334 308.349 264.606C308.678 264.867 309.137 264.997 309.726 264.997ZM315.697 266V257.568H316.989L317.074 259.081C317.346 258.548 317.737 258.129 318.247 257.823C318.757 257.517 319.335 257.364 319.981 257.364C320.979 257.364 321.772 257.67 322.361 258.282C322.962 258.883 323.262 259.812 323.262 261.07V266H321.834V261.223C321.834 259.466 321.109 258.588 319.658 258.588C318.933 258.588 318.327 258.854 317.839 259.387C317.363 259.908 317.125 260.656 317.125 261.631V266H315.697ZM214.096 291.204C213.291 291.204 212.566 291.023 211.92 290.66C211.285 290.286 210.781 289.77 210.407 289.113C210.044 288.444 209.863 287.668 209.863 286.784C209.863 285.9 210.044 285.129 210.407 284.472C210.781 283.803 211.285 283.288 211.92 282.925C212.566 282.551 213.291 282.364 214.096 282.364C215.093 282.364 215.932 282.625 216.612 283.146C217.303 283.667 217.74 284.364 217.921 285.237H216.459C216.346 284.716 216.068 284.313 215.626 284.03C215.184 283.735 214.668 283.588 214.079 283.588C213.603 283.588 213.155 283.707 212.736 283.945C212.317 284.183 211.977 284.54 211.716 285.016C211.455 285.492 211.325 286.081 211.325 286.784C211.325 287.487 211.455 288.076 211.716 288.552C211.977 289.028 212.317 289.391 212.736 289.64C213.155 289.878 213.603 289.997 214.079 289.997C214.668 289.997 215.184 289.855 215.626 289.572C216.068 289.277 216.346 288.864 216.459 288.331H217.921C217.751 289.181 217.32 289.872 216.629 290.405C215.938 290.938 215.093 291.204 214.096 291.204ZM227.093 282.568V291H225.801L225.716 289.487C225.444 290.02 225.053 290.439 224.543 290.745C224.033 291.051 223.455 291.204 222.809 291.204C221.812 291.204 221.013 290.904 220.412 290.303C219.823 289.691 219.528 288.756 219.528 287.498V282.568H220.956V287.345C220.956 289.102 221.682 289.98 223.132 289.98C223.858 289.98 224.458 289.719 224.934 289.198C225.422 288.665 225.665 287.912 225.665 286.937V282.568H227.093ZM232.474 291.204C231.465 291.204 230.627 290.949 229.958 290.439C229.289 289.929 228.898 289.238 228.785 288.365H230.247C230.338 288.807 230.57 289.192 230.944 289.521C231.329 289.838 231.845 289.997 232.491 289.997C233.092 289.997 233.534 289.872 233.817 289.623C234.1 289.362 234.242 289.056 234.242 288.705C234.242 288.195 234.055 287.855 233.681 287.685C233.318 287.515 232.803 287.362 232.134 287.226C231.681 287.135 231.227 287.005 230.774 286.835C230.321 286.665 229.941 286.427 229.635 286.121C229.329 285.804 229.176 285.39 229.176 284.88C229.176 284.143 229.448 283.543 229.992 283.078C230.547 282.602 231.295 282.364 232.236 282.364C233.131 282.364 233.862 282.591 234.429 283.044C235.007 283.486 235.341 284.121 235.432 284.948H234.021C233.964 284.517 233.777 284.183 233.46 283.945C233.154 283.696 232.74 283.571 232.219 283.571C231.709 283.571 231.312 283.679 231.029 283.894C230.757 284.109 230.621 284.393 230.621 284.744C230.621 285.084 230.797 285.35 231.148 285.543C231.511 285.736 231.998 285.9 232.61 286.036C233.131 286.149 233.624 286.291 234.089 286.461C234.565 286.62 234.95 286.863 235.245 287.192C235.551 287.509 235.704 287.974 235.704 288.586C235.715 289.345 235.426 289.974 234.837 290.473C234.259 290.96 233.471 291.204 232.474 291.204ZM240.494 291C239.723 291 239.117 290.813 238.675 290.439C238.233 290.065 238.012 289.391 238.012 288.416V283.775H236.55V282.568H238.012L238.199 280.545H239.44V282.568H241.922V283.775H239.44V288.416C239.44 288.949 239.548 289.311 239.763 289.504C239.978 289.685 240.358 289.776 240.902 289.776H241.786V291H240.494ZM247.146 291.204C246.353 291.204 245.639 291.023 245.004 290.66C244.369 290.297 243.865 289.787 243.491 289.13C243.128 288.461 242.947 287.679 242.947 286.784C242.947 285.889 243.134 285.112 243.508 284.455C243.882 283.786 244.386 283.271 245.021 282.908C245.667 282.545 246.387 282.364 247.18 282.364C247.973 282.364 248.687 282.545 249.322 282.908C249.957 283.271 250.455 283.786 250.818 284.455C251.192 285.112 251.379 285.889 251.379 286.784C251.379 287.679 251.192 288.461 250.818 289.13C250.444 289.787 249.934 290.297 249.288 290.66C248.653 291.023 247.939 291.204 247.146 291.204ZM247.146 289.98C247.633 289.98 248.087 289.861 248.506 289.623C248.925 289.385 249.265 289.028 249.526 288.552C249.787 288.076 249.917 287.487 249.917 286.784C249.917 286.081 249.787 285.492 249.526 285.016C249.277 284.54 248.942 284.183 248.523 283.945C248.104 283.707 247.656 283.588 247.18 283.588C246.693 283.588 246.239 283.707 245.82 283.945C245.401 284.183 245.061 284.54 244.8 285.016C244.539 285.492 244.409 286.081 244.409 286.784C244.409 287.487 244.539 288.076 244.8 288.552C245.061 289.028 245.395 289.385 245.803 289.623C246.222 289.861 246.67 289.98 247.146 289.98ZM253.164 291V282.568H254.456L254.558 283.792C254.83 283.339 255.193 282.987 255.646 282.738C256.1 282.489 256.61 282.364 257.176 282.364C257.845 282.364 258.417 282.5 258.893 282.772C259.381 283.044 259.755 283.458 260.015 284.013C260.31 283.503 260.712 283.101 261.222 282.806C261.744 282.511 262.305 282.364 262.905 282.364C263.914 282.364 264.719 282.67 265.319 283.282C265.92 283.883 266.22 284.812 266.22 286.07V291H264.809V286.223C264.809 285.35 264.634 284.693 264.282 284.251C263.931 283.809 263.427 283.588 262.769 283.588C262.089 283.588 261.523 283.854 261.069 284.387C260.627 284.908 260.406 285.656 260.406 286.631V291H258.978V286.223C258.978 285.35 258.803 284.693 258.451 284.251C258.1 283.809 257.596 283.588 256.938 283.588C256.27 283.588 255.709 283.854 255.255 284.387C254.813 284.908 254.592 285.656 254.592 286.631V291H253.164ZM271.962 291.204C271.158 291.204 270.444 291.023 269.82 290.66C269.197 290.286 268.704 289.77 268.341 289.113C267.99 288.456 267.814 287.679 267.814 286.784C267.814 285.9 267.99 285.129 268.341 284.472C268.693 283.803 269.18 283.288 269.803 282.925C270.438 282.551 271.169 282.364 271.996 282.364C272.812 282.364 273.515 282.551 274.104 282.925C274.705 283.288 275.164 283.769 275.481 284.37C275.799 284.971 275.957 285.617 275.957 286.308C275.957 286.433 275.952 286.557 275.94 286.682C275.94 286.807 275.94 286.948 275.94 287.107H269.225C269.259 287.753 269.407 288.291 269.667 288.722C269.939 289.141 270.274 289.459 270.67 289.674C271.078 289.889 271.509 289.997 271.962 289.997C272.552 289.997 273.045 289.861 273.441 289.589C273.838 289.317 274.127 288.949 274.308 288.484H275.719C275.493 289.266 275.056 289.918 274.41 290.439C273.776 290.949 272.96 291.204 271.962 291.204ZM271.962 283.571C271.282 283.571 270.676 283.781 270.143 284.2C269.622 284.608 269.322 285.209 269.242 286.002H274.546C274.512 285.243 274.252 284.648 273.764 284.217C273.277 283.786 272.676 283.571 271.962 283.571ZM277.65 291V282.568H278.942L279.061 284.183C279.322 283.628 279.718 283.186 280.251 282.857C280.784 282.528 281.441 282.364 282.223 282.364V283.86H281.832C281.333 283.86 280.874 283.951 280.455 284.132C280.036 284.302 279.701 284.597 279.452 285.016C279.203 285.435 279.078 286.013 279.078 286.75V291H277.65ZM286.856 291.204C285.847 291.204 285.009 290.949 284.34 290.439C283.671 289.929 283.28 289.238 283.167 288.365H284.629C284.72 288.807 284.952 289.192 285.326 289.521C285.711 289.838 286.227 289.997 286.873 289.997C287.474 289.997 287.916 289.872 288.199 289.623C288.482 289.362 288.624 289.056 288.624 288.705C288.624 288.195 288.437 287.855 288.063 287.685C287.7 287.515 287.185 287.362 286.516 287.226C286.063 287.135 285.609 287.005 285.156 286.835C284.703 286.665 284.323 286.427 284.017 286.121C283.711 285.804 283.558 285.39 283.558 284.88C283.558 284.143 283.83 283.543 284.374 283.078C284.929 282.602 285.677 282.364 286.618 282.364C287.513 282.364 288.244 282.591 288.811 283.044C289.389 283.486 289.723 284.121 289.814 284.948H288.403C288.346 284.517 288.159 284.183 287.842 283.945C287.536 283.696 287.122 283.571 286.601 283.571C286.091 283.571 285.694 283.679 285.411 283.894C285.139 284.109 285.003 284.393 285.003 284.744C285.003 285.084 285.179 285.35 285.53 285.543C285.893 285.736 286.38 285.9 286.992 286.036C287.513 286.149 288.006 286.291 288.471 286.461C288.947 286.62 289.332 286.863 289.627 287.192C289.933 287.509 290.086 287.974 290.086 288.586C290.097 289.345 289.808 289.974 289.219 290.473C288.641 290.96 287.853 291.204 286.856 291.204Z" fill="#0F2137"/>
</g>
<defs>
<filter id="filter0_d_1_2344" x="96" y="75" width="308" height="328" filterUnits="userSpaceOnUse" color-interpolation-filters="sRGB">
<feFlood flood-opacity="0" result="BackgroundImageFix"/>
<feColorMatrix in="SourceAlpha" type="matrix" values="0 0 0 0 0 0 0 0 0 0 0 0 0 0 0 0 0 0 127 0" result="hardAlpha"/>
<feOffset dy="4"/>
<feGaussianBlur stdDeviation="2"/>
<feComposite in2="hardAlpha" operator="out"/>
<feColorMatrix type="matrix" values="0 0 0 0 0 0 0 0 0 0 0 0 0 0 0 0 0 0 0.25 0"/>
<feBlend mode="normal" in2="BackgroundImageFix" result="effect1_dropShadow_1_2344"/>
<feBlend mode="normal" in="SourceGraphic" in2="effect1_dropShadow_1_2344" result="shape"/>
</filter>
<filter id="filter1_d_1_2344" x="0" y="0" width="500" height="520" filterUnits="userSpaceOnUse" color-interpolation-filters="sRGB">
<feFlood flood-opacity="0" result="BackgroundImageFix"/>
<feColorMatrix in="SourceAlpha" type="matrix" values="0 0 0 0 0 0 0 0 0 0 0 0 0 0 0 0 0 0 127 0" result="hardAlpha"/>
<feOffset dy="25"/>
<feGaussianBlur stdDeviation="50"/>
<feColorMatrix type="matrix" values="0 0 0 0 0.269792 0 0 0 0 0.346104 0 0 0 0 0.616667 0 0 0 0.08 0"/>
<feBlend mode="normal" in2="BackgroundImageFix" result="effect1_dropShadow_1_2344"/>
<feBlend mode="normal" in="SourceGraphic" in2="effect1_dropShadow_1_2344" result="shape"/>
</filter>
</defs>
</svg>
