<svg width="181" height="40" viewBox="0 0 181 40" fill="none" xmlns="http://www.w3.org/2000/svg">
<path d="M48.8356 26L45.6906 14.1H48.0196L50.1616 23.569L52.6776 14.1H55.0746L57.5226 23.569L59.6646 14.1H62.0106L58.7806 26H56.1966L53.8336 17.177L51.4026 26H48.8356ZM65.4808 26.204C64.7554 26.204 64.1604 26.0907 63.6958 25.864C63.2311 25.626 62.8854 25.3143 62.6588 24.929C62.4321 24.5437 62.3188 24.1187 62.3188 23.654C62.3188 22.872 62.6248 22.2373 63.2368 21.75C63.8488 21.2627 64.7668 21.019 65.9908 21.019H68.1328V20.815C68.1328 20.237 67.9684 19.812 67.6398 19.54C67.3111 19.268 66.9031 19.132 66.4158 19.132C65.9738 19.132 65.5884 19.2397 65.2598 19.455C64.9311 19.659 64.7271 19.965 64.6478 20.373H62.5228C62.5794 19.761 62.7834 19.2283 63.1348 18.775C63.4974 18.3217 63.9621 17.976 64.5288 17.738C65.0954 17.4887 65.7301 17.364 66.4328 17.364C67.6341 17.364 68.5804 17.6643 69.2718 18.265C69.9631 18.8657 70.3088 19.7157 70.3088 20.815V26H68.4558L68.2518 24.64C68.0024 25.0933 67.6511 25.4673 67.1978 25.762C66.7558 26.0567 66.1834 26.204 65.4808 26.204ZM65.9738 24.504C66.5971 24.504 67.0788 24.3 67.4188 23.892C67.7701 23.484 67.9911 22.9797 68.0818 22.379H66.2288C65.6508 22.379 65.2371 22.4867 64.9878 22.702C64.7384 22.906 64.6138 23.161 64.6138 23.467C64.6138 23.7957 64.7384 24.0507 64.9878 24.232C65.2371 24.4133 65.5658 24.504 65.9738 24.504ZM76.0261 26C75.1421 26 74.4337 25.7847 73.9011 25.354C73.3684 24.9233 73.1021 24.1583 73.1021 23.059V19.387H71.6571V17.568H73.1021L73.3571 15.307H75.2781V17.568H77.5561V19.387H75.2781V23.076C75.2781 23.484 75.3631 23.7673 75.5331 23.926C75.7144 24.0733 76.0204 24.147 76.4511 24.147H77.5051V26H76.0261ZM83.3395 26.204C82.4782 26.204 81.7188 26.017 81.0615 25.643C80.4042 25.269 79.8828 24.7477 79.4975 24.079C79.1235 23.4103 78.9365 22.6453 78.9365 21.784C78.9365 20.9227 79.1235 20.1577 79.4975 19.489C79.8828 18.8203 80.4042 18.299 81.0615 17.925C81.7188 17.551 82.4782 17.364 83.3395 17.364C84.4162 17.364 85.3228 17.6473 86.0595 18.214C86.7962 18.7693 87.2665 19.54 87.4705 20.526H85.1755C85.0622 20.118 84.8355 19.8007 84.4955 19.574C84.1668 19.336 83.7758 19.217 83.3225 19.217C82.7218 19.217 82.2118 19.4437 81.7925 19.897C81.3732 20.3503 81.1635 20.9793 81.1635 21.784C81.1635 22.5887 81.3732 23.2177 81.7925 23.671C82.2118 24.1243 82.7218 24.351 83.3225 24.351C83.7758 24.351 84.1668 24.2377 84.4955 24.011C84.8355 23.7843 85.0622 23.4613 85.1755 23.042H87.4705C87.2665 23.994 86.7962 24.759 86.0595 25.337C85.3228 25.915 84.4162 26.204 83.3395 26.204ZM89.4019 26V13.76H91.5779V18.86C91.8612 18.3953 92.2409 18.0327 92.7169 17.772C93.2042 17.5 93.7595 17.364 94.3829 17.364C95.4255 17.364 96.2302 17.6927 96.7969 18.35C97.3749 19.0073 97.6639 19.9707 97.6639 21.24V26H95.5049V21.444C95.5049 20.7187 95.3575 20.1633 95.0629 19.778C94.7795 19.3927 94.3262 19.2 93.7029 19.2C93.0909 19.2 92.5809 19.4153 92.1729 19.846C91.7762 20.2767 91.5779 20.8773 91.5779 21.648V26H89.4019ZM103.846 26V14.1H111.53V15.851H106.022V19.183H110.476V20.9H106.022V26H103.846ZM121.285 17.568V26H119.364L119.194 24.572C118.933 25.0707 118.553 25.4673 118.055 25.762C117.567 26.0567 116.989 26.204 116.321 26.204C115.278 26.204 114.468 25.8753 113.89 25.218C113.312 24.5607 113.023 23.5973 113.023 22.328V17.568H115.199V22.124C115.199 22.8493 115.346 23.4047 115.641 23.79C115.935 24.1753 116.394 24.368 117.018 24.368C117.63 24.368 118.128 24.1527 118.514 23.722C118.91 23.2913 119.109 22.6907 119.109 21.92V17.568H121.285ZM123.501 26V13.76H125.677V26H123.501ZM127.901 26V13.76H130.077V26H127.901ZM138.629 26L135.535 17.568H137.813L139.955 23.943L142.097 17.568H144.375L141.264 26H138.629ZM146.921 16.259C146.524 16.259 146.195 16.14 145.935 15.902C145.685 15.664 145.561 15.3637 145.561 15.001C145.561 14.6383 145.685 14.3437 145.935 14.117C146.195 13.879 146.524 13.76 146.921 13.76C147.317 13.76 147.64 13.879 147.89 14.117C148.15 14.3437 148.281 14.6383 148.281 15.001C148.281 15.3637 148.15 15.664 147.89 15.902C147.64 16.14 147.317 16.259 146.921 16.259ZM145.833 26V17.568H148.009V26H145.833ZM154.156 26.204C153.362 26.204 152.654 26.0113 152.031 25.626C151.407 25.2407 150.914 24.7137 150.552 24.045C150.189 23.3763 150.008 22.617 150.008 21.767C150.008 20.917 150.189 20.1633 150.552 19.506C150.914 18.8373 151.407 18.316 152.031 17.942C152.654 17.5567 153.362 17.364 154.156 17.364C154.79 17.364 155.346 17.483 155.822 17.721C156.298 17.959 156.683 18.2933 156.978 18.724V13.76H159.154V26H157.216L156.978 24.793C156.706 25.167 156.343 25.4957 155.89 25.779C155.448 26.0623 154.87 26.204 154.156 26.204ZM154.615 24.3C155.317 24.3 155.89 24.0677 156.332 23.603C156.785 23.127 157.012 22.5207 157.012 21.784C157.012 21.0473 156.785 20.4467 156.332 19.982C155.89 19.506 155.317 19.268 154.615 19.268C153.923 19.268 153.351 19.5003 152.898 19.965C152.444 20.4297 152.218 21.0303 152.218 21.767C152.218 22.5037 152.444 23.11 152.898 23.586C153.351 24.062 153.923 24.3 154.615 24.3ZM165.467 26.204C164.617 26.204 163.863 26.0227 163.206 25.66C162.548 25.2973 162.033 24.7873 161.659 24.13C161.285 23.4727 161.098 22.7133 161.098 21.852C161.098 20.9793 161.279 20.203 161.642 19.523C162.016 18.843 162.526 18.316 163.172 17.942C163.829 17.5567 164.6 17.364 165.484 17.364C166.311 17.364 167.042 17.5453 167.677 17.908C168.311 18.2707 168.804 18.7693 169.156 19.404C169.518 20.0273 169.7 20.7243 169.7 21.495C169.7 21.6197 169.694 21.75 169.683 21.886C169.683 22.022 169.677 22.1637 169.666 22.311H163.257C163.302 22.9683 163.529 23.484 163.937 23.858C164.356 24.232 164.86 24.419 165.45 24.419C165.892 24.419 166.26 24.3227 166.555 24.13C166.861 23.926 167.087 23.6653 167.235 23.348H169.445C169.286 23.8807 169.02 24.368 168.646 24.81C168.283 25.2407 167.83 25.5807 167.286 25.83C166.753 26.0793 166.147 26.204 165.467 26.204ZM165.484 19.132C164.951 19.132 164.481 19.285 164.073 19.591C163.665 19.8857 163.404 20.339 163.291 20.951H167.49C167.456 20.3957 167.252 19.9537 166.878 19.625C166.504 19.2963 166.039 19.132 165.484 19.132ZM175.576 26.204C174.76 26.204 174.023 26.017 173.366 25.643C172.72 25.269 172.204 24.7533 171.819 24.096C171.445 23.4273 171.258 22.6567 171.258 21.784C171.258 20.9113 171.45 20.1463 171.836 19.489C172.221 18.8203 172.737 18.299 173.383 17.925C174.04 17.551 174.777 17.364 175.593 17.364C176.397 17.364 177.123 17.551 177.769 17.925C178.426 18.299 178.942 18.8203 179.316 19.489C179.701 20.1463 179.894 20.9113 179.894 21.784C179.894 22.6567 179.701 23.4273 179.316 24.096C178.942 24.7533 178.426 25.269 177.769 25.643C177.111 26.017 176.38 26.204 175.576 26.204ZM175.576 24.317C176.142 24.317 176.635 24.1073 177.055 23.688C177.474 23.2573 177.684 22.6227 177.684 21.784C177.684 20.9453 177.474 20.3163 177.055 19.897C176.635 19.4663 176.148 19.251 175.593 19.251C175.015 19.251 174.516 19.4663 174.097 19.897C173.689 20.3163 173.485 20.9453 173.485 21.784C173.485 22.6227 173.689 23.2573 174.097 23.688C174.516 24.1073 175.009 24.317 175.576 24.317Z" fill="white"/>
<path d="M27.4506 13.5922C26.4702 11.6907 25.0404 10.0116 23.316 8.73635C23.0629 8.54927 22.7062 8.60274 22.519 8.85573C22.3319 9.10872 22.3854 9.4655 22.6384 9.65268C24.2231 10.8246 25.5369 12.3674 26.4378 14.1145C27.3818 15.9451 27.8604 17.9253 27.8604 20.0001C27.8604 27.0913 22.0912 32.8605 15 32.8605C7.90879 32.8605 2.13959 27.0913 2.13959 20C2.13959 12.9087 7.90879 7.13959 15 7.13959C15.3146 7.13959 15.5698 6.88442 15.5698 6.5698C15.5698 6.25517 15.3146 6 15 6C7.28039 6 1 12.2804 1 20C1 27.7196 7.28039 34 15 34C22.7196 34 29 27.7196 29 20C29 17.7736 28.4643 15.5579 27.4506 13.5922Z" fill="white" stroke="white"/>
<path d="M13.1324 23.6782C13.1324 24.5432 12.4311 25.2444 11.5662 25.2444C10.7013 25.2444 10 24.5432 10 23.6782V15.5662C10 14.7013 10.7013 14 11.5662 14C12.4311 14 13.1324 14.7013 13.1324 15.5662V23.6782Z" fill="white"/>
<path d="M19.0103 23.6782C19.0103 24.5432 18.3091 25.2444 17.4441 25.2444C16.5792 25.2444 15.8779 24.5432 15.8779 23.6782V15.5662C15.8782 14.7013 16.5794 14 17.4441 14C18.3091 14 19.0103 14.7013 19.0103 15.5662V23.6782Z" fill="white"/>
</svg>
